<?xml version="1.0" encoding="UTF-8"?><svg id="Réteg_1" xmlns="http://www.w3.org/2000/svg" viewBox="0 0 1313.7 718.3"><path d="m60.9,203.31c-2.6.19-5.32.93-8.15,2.23-2.82,1.3-6.19,2.65-10.09,4.04-1.3.46-2.59.88-3.83,1.26-1.26.37-2.52.77-3.76,1.18-1.26.42-2.48.93-3.7,1.54s-2.37,1.46-3.48,2.57c-1.11,1.3-2.26,2.79-3.41,4.46-1.16,1.67-2.26,3.29-3.28,4.88-1.02,1.58-2,3.02-2.93,4.32-.93,1.3-1.71,2.18-2.37,2.65v4.18c0,2.04-.02,3.83-.07,5.36-.05,1.54,0,3,.14,4.39.15,1.39.46,2.74.98,4.04.52,1.3,1.33,2.79,2.44,4.46.66.83,1.5,1.74,2.52,2.72,1.02.98,2.04,1.9,3.06,2.78s1.97,1.72,2.86,2.51c.88.79,1.55,1.46,2.02,2.02.09.19.37.37.84.56s.98.35,1.53.49c.56.14,1.09.26,1.6.35.51.09.86.14,1.04.14.84,0,1.45.07,1.81.21.37.14.68.28.91.42.24.14.51.28.84.42.33.14.82.21,1.46.21,2.04,0,3.76-.16,5.15-.49,1.39-.33,2.72-.7,3.98-1.12,1.25-.42,2.53-.79,3.83-1.12,1.29-.32,2.93-.49,4.88-.49.74,0,1.71-.19,2.93-.56,1.2-.37,2.18-.56,2.93-.56,1.58,0,2.86-.4,3.83-1.19.98-.79,2.15-1.7,3.55-2.72,2.51-1.21,4.76-2.39,6.76-3.56,2-1.16,3.95-2.35,5.85-3.56,1.91-1.21,3.79-2.51,5.65-3.9,1.86-1.39,3.9-3.02,6.12-4.88,3.9-3.16,7.37-6.13,10.39-8.92,3.02-2.78,5.85-5.66,8.49-8.64,2.65-2.97,5.16-6.15,7.53-9.54,2.37-3.39,4.81-7.27,7.31-11.64,3.99-7.07,7.16-13.38,9.48-18.96,2.31-5.57,4.24-11.1,5.78-16.58,1.53-5.48,2.87-11.29,4.04-17.42,1.16-6.13,2.57-13.24,4.25-21.32l.84-15.19c.27-2.14.6-3.86.98-5.15.36-1.3.69-2.56.98-3.76.27-1.21.53-2.48.76-3.83.23-1.34.35-3.14.35-5.36v-3.62l1.95-11.57c0-2.04.07-3.88.2-5.5.15-1.63.33-3.21.56-4.74.24-1.53.42-3.11.57-4.74.14-1.62.2-3.46.2-5.5,0-1.58-.18-2.95-.56-4.11-.37-1.16-.56-2.53-.56-4.11v-.7h-2.79c-1.11,0-2.04.12-2.79.35-.74.23-1.58.35-2.51.35-2.14,0-4.01-.12-5.65-.35-1.62-.23-3.5-.35-5.64-.35-1.39,0-2.84-.05-4.32-.14-1.49-.09-2.88-.05-4.18.14s-2.48.56-3.55,1.11c-1.07.56-1.84,1.49-2.3,2.79-.56,1.58-1.21,2.93-1.95,4.04-.75,1.11-1.91,1.67-3.48,1.67-1.02,0-1.81-.33-2.37-.98-.56-.65-.95-1.47-1.19-2.44-.23-.98-.34-2.04-.34-3.2v-3.41c0-1.76.2-3.18.62-4.25.42-1.07.62-2.49.62-4.25,0-1.67-.07-3.46-.2-5.36-.14-1.91-.19-3.69-.14-5.36.05-1.67.25-3.09.62-4.25.37-1.16,1.02-1.83,1.95-2.02.37-.19.88-.14,1.53.14s1.33.77,2.02,1.46c.7.7,1.3,1.58,1.81,2.65.51,1.07.82,2.21.91,3.41.09,1.77.6,3,1.53,3.7.93.69,2.11,1.11,3.55,1.25,1.44.14,3.07.14,4.89,0,1.8-.14,3.64-.21,5.5-.21s3.76-.14,5.43-.42c1.68-.28,3.48-.42,5.43-.42,1.02,0,2.04.07,3.07.21,1.02.14,2.04.21,3.06.21,1.2,0,2.06-.21,2.57-.62.51-.42,1.37-.63,2.59-.63h9.62c1.29,0,2.51.21,3.62.63,1.11.41,2.37.62,3.76.62,1.02,0,1.86-.21,2.51-.62.65-.42,1.49-.63,2.51-.63,1.21,0,2.32.21,3.35.63,1.02.41,2.09.62,3.21.62,1.95,0,3.99-.18,6.12-.56,2.14-.37,4-1.25,5.58-2.65.46-.65.82-1.33,1.04-2.02.23-.7.46-1.33.7-1.88.23-.56.56-1,.98-1.33.41-.32,1.04-.49,1.87-.49.75-.18,1.59.52,2.52,2.09.92,1.58,1.38,3.86,1.38,6.83,0,1.3-.05,3-.14,5.09-.09,2.09-.27,4.18-.56,6.27-.28,2.09-.65,3.88-1.11,5.36-.46,1.49-1.03,2.23-1.68,2.23-.83,0-1.58-.33-2.22-.98-.66-.65-1.33-1.37-2.03-2.16-.69-.79-1.49-1.51-2.36-2.16-.88-.65-1.94-.98-3.14-.98-3.06,0-6.06.14-8.98.41-2.94.28-5.89.42-8.86.42h-8.49c-.56,0-.64.46-.22,1.39s.64,1.76.64,2.51c0,1.58-.03,2.88-.08,3.9-.05,1.03-.09,2.02-.14,3-.05.98-.09,2-.14,3.06-.05,1.07-.07,2.39-.07,3.97v9.33c0,3.53-.24,6.67-.7,9.41-.46,2.74-1,5.41-1.6,8.01-.6,2.6-1.13,5.3-1.6,8.09-.46,2.78-.7,5.9-.7,9.33v8.09l-2.37,10.45v3.48c0,2.23-.18,3.95-.56,5.16s-.84,2.3-1.39,3.27c-.56.98-1.11,2.04-1.67,3.21-.56,1.16-1.02,2.85-1.39,5.09,0,.46-.07,1.13-.22,2.02-.14.88-.27,1.79-.41,2.72-.15.93-.26,1.83-.35,2.72s-.14,1.6-.14,2.16c0,1.02-.26,1.88-.77,2.58s-.77,1.51-.77,2.44c0,1.86-.18,3.46-.56,4.81-.37,1.34-.88,2.63-1.53,3.83-.65,1.2-1.35,2.44-2.09,3.69-.75,1.25-1.44,2.72-2.1,4.39-.74,2.32-1.38,4.48-1.95,6.48-.56,2-1.16,3.92-1.8,5.78-.66,1.85-1.39,3.71-2.23,5.57-.84,1.85-1.95,3.8-3.35,5.85-.84,1.39-1.58,2.63-2.22,3.69-.66,1.07-1.3,2.05-1.95,2.93-.66.88-1.33,1.81-2.03,2.79-.69.98-1.6,2.06-2.71,3.27-1.59,1.77-2.93,3.49-4.05,5.16-1.11,1.67-2.22,3.32-3.35,4.94-1.11,1.63-2.29,3.18-3.55,4.67-1.25,1.48-2.77,2.93-4.52,4.31-2.32,1.76-4.39,3.39-6.2,4.88-1.81,1.48-3.57,2.93-5.3,4.31-1.71,1.39-3.48,2.81-5.3,4.25-1.81,1.44-3.83,2.99-6.06,4.67-4.56,3.35-8.92,6.25-13.11,8.71-4.17,2.46-8.38,4.55-12.61,6.27-4.22,1.72-8.54,3.07-12.95,4.04s-9.08,1.6-14.01,1.88c-1.77.18-3.28.3-4.54.35-1.25.05-2.86.07-4.81.07-5.3,0-9.91-1.09-13.86-3.27-3.95-2.18-7.69-5.36-11.22-9.55-1.21-1.39-2.28-2.69-3.21-3.9-.93-1.21-1.75-2.42-2.44-3.62-.7-1.21-1.24-2.48-1.6-3.83-.37-1.34-.57-2.95-.57-4.8v-7.81c0-.74.15-1.44.42-2.09.28-.65.42-1.39.42-2.23,0-.74.05-1.7.14-2.85.1-1.16.15-2.11.15-2.86.83-2.88,2-5.32,3.48-7.31,1.49-2,3.21-3.83,5.16-5.51,1.95-1.67,4.06-3.35,6.34-5.02,2.28-1.67,4.66-3.62,7.18-5.85,2.51-2.05,4.94-3.67,7.31-4.88s4.81-2.23,7.31-3.07c2.51-.83,5.1-1.58,7.8-2.23,2.7-.65,5.67-1.39,8.91-2.23,1.12-.28,2.1-.63,2.93-1.05.84-.41,1.61-.79,2.3-1.11.7-.33,1.46-.63,2.3-.91s1.81-.42,2.93-.42c1.02,0,2.06-.19,3.13-.56,1.08-.37,1.98-.56,2.72-.56,1.67,0,3.16-.19,4.46-.56,1.3-.37,2.56-.86,3.76-1.46,1.21-.6,2.42-1.25,3.62-1.95,1.21-.7,2.56-1.32,4.05-1.88,1.49-.46,2.95-.86,4.39-1.18,1.44-.33,2.72-.75,3.83-1.26,1.11-.51,2.02-1.19,2.71-2.02.7-.83,1.05-2.05,1.05-3.62v-8.22c.18-.19.71-.42,1.6-.7s1.81-.56,2.79-.83,1.91-.54,2.78-.77c.88-.24,1.46-.35,1.75-.35,2.14,0,3.86.21,5.16.63,1.29.41,2.31,1.16,3.06,2.23.75,1.07,1.24,2.51,1.46,4.32.23,1.81.35,4.06.35,6.76,0,1.49-.31,2.67-.91,3.55-.6.88-1.42,1.65-2.44,2.3-1.02.65-2.17,1.25-3.41,1.81-1.26.56-2.48,1.21-3.7,1.95-2.42,1.49-4.83,2.67-7.25,3.56-2.42.88-4.79,1.58-7.1,2.09-2.32.51-4.63.88-6.91,1.11-2.27.23-4.48.44-6.61.63l-10.46,1.95c-.74,0-1.42.16-2.02.49-.6.32-1.19.7-1.75,1.12-.56.41-1.18.81-1.88,1.19-.69.37-1.51.6-2.44.69Z"/><path d="m221.16,19.79c1.95,0,3.58.51,4.89,1.53,1.29,1.03,2.36,2.23,3.2,3.62.84,1.39,1.44,2.84,1.81,4.32s.56,2.69.56,3.62c0,.74-.56,1.76-1.67,3.07-1.12,1.3-2.32,2.6-3.63,3.9-1.58,1.58-3.3,3.25-5.16,5.02-.65.65-1.34,1.02-2.09,1.11-.75.1-1.49.14-2.22.14-1.03,0-1.94.07-2.72.21-.79.14-1.55.58-2.3,1.32-1.95,1.12-3.48,2.51-4.59,4.18-1.12,1.67-2.05,3.49-2.79,5.44,0,.37-.11,1.02-.35,1.95-.23.93-.51,1.91-.84,2.93-.32,1.02-.6,2-.83,2.93-.24.93-.35,1.58-.35,1.95l-1.53,6.13c-.09.28-.35,1.3-.77,3.07-.42,1.77-.86,3.76-1.33,5.99-.46,2.23-.87,4.41-1.25,6.55s-.56,3.67-.56,4.6c0,.37.05.74.14,1.12.18.74.56,1.11,1.11,1.11,1.12,0,2.46-.7,4.05-2.09,1.58-1.39,3.35-2.74,5.3-4.04.56-.56,1.34-1.3,2.37-2.23,1.02-.93,2.09-1.84,3.2-2.72,1.11-.88,2.21-1.62,3.28-2.23,1.07-.6,1.97-.91,2.72-.91h2.36c1.77,0,3.12.79,4.05,2.37.93,1.58,1.6,3.35,2.02,5.3s.67,3.79.77,5.51c.09,1.72.14,2.72.14,2.99l-.42,4.74c0,.56.07,1.72.2,3.48.15,1.77.22,3.3.22,4.6,0,.28-.07.63-.22,1.05-.14.41-.29.86-.49,1.32-.18.46-.36.98-.56,1.53v2.65c0,1.21-.11,2.02-.34,2.44-.24.42-.35,1.28-.35,2.58-.46,1.49-.98,2.56-1.53,3.2-.66.56-1.15,1.26-1.46,2.09-.33.83-.77,1.53-1.33,2.09-.37,1.39-.98,3.02-1.81,4.88s-1.91,3.48-3.2,4.88c-.66.65-1.26,1.55-1.81,2.72-.56,1.16-1.15,2.32-1.75,3.49-.6,1.16-1.35,2.15-2.22,2.99-.88.83-1.94,1.25-3.14,1.25h-6.54c-.28,0-.79-.02-1.54-.07-.74-.05-1.49-.19-2.22-.42-.75-.23-1.39-.61-1.95-1.11-.56-.52-.84-1.28-.84-2.3,0-.65.25-1.44.77-2.37.51-.92,1.07-1.83,1.67-2.72s1.24-1.72,1.88-2.51,1.11-1.37,1.39-1.75c1.39-1.11,2.69-2.27,3.9-3.48,1.2-1.21,2.13-2.09,2.79-2.65,1.85-1.39,2.99-2.76,3.41-4.11.42-1.34.95-2.72,1.6-4.11,1.3-2.51,2.32-4.58,3.06-6.2.75-1.62,1.12-3.41,1.12-5.36v-5.43c0-.37-.1-.93-.28-1.67s-.51-1.46-.98-2.16-1.04-1.33-1.75-1.88c-.69-.56-1.51-.83-2.44-.83-.56,0-1,.26-1.32.77-.33.51-1.15,1.14-2.44,1.88-3.35,2.51-6,5.22-7.95,8.15-1.95,2.93-3.72,6.02-5.3,9.27-.56,1.95-1.02,4.02-1.39,6.2-.36,2.18-.74,4.37-1.11,6.55-.37,2.19-.75,4.3-1.11,6.34-.37,2.04-.84,3.95-1.39,5.71-.75,1.21-1.66,2.16-2.72,2.86s-1.97,1.04-2.71,1.04c-1.39,0-2.44-.37-3.14-1.11-.69-.74-1.22-1.63-1.6-2.65s-.58-2.07-.62-3.14c-.06-1.07-.08-1.88-.08-2.44v-13.1c0-.37.28-1.63.84-3.76.56-2.14,1.19-4.53,1.88-7.18.7-2.65,1.33-5.22,1.88-7.73.56-2.51.84-4.41.84-5.71.27-.74.49-1.44.62-2.09.14-.65.29-1.25.49-1.81.18-.65.33-1.3.42-1.95v-3.91c0-.37.02-.67.07-.9s.29-.44.77-.63c0-.18.05-.37.14-.56s.14-.37.14-.56v-2.79c0-.28.14-.91.42-1.88s.6-2.06.98-3.27.69-2.42.98-3.62.42-2.14.42-2.79v-8.5c0-2.69.35-5.11,1.04-7.25.7-2.14,1.24-3.86,1.6-5.15l.42-3.9c.09-.65.44-1.65,1.04-3,.61-1.34,1.28-2.72,2.03-4.11.74-1.39,1.49-2.69,2.22-3.9.75-1.21,1.3-1.95,1.68-2.23.56-.28.95-.79,1.18-1.53s.46-1.54.7-2.37c.23-.84.56-1.65.98-2.44.41-.79,1.13-1.37,2.15-1.74.18,0,.46-.02.84-.07.36-.05.74-.16,1.11-.35.18-.19.46-.28.84-.28h1.11c.75-.74,1.84-1.54,3.28-2.37,1.44-.84,2.9-1.63,4.39-2.37,1.67-.83,3.53-1.58,5.57-2.23Z"/><path d="m261.51,79.43c1.95,0,3.59.35,4.94,1.05s2.44,1.65,3.28,2.86,1.44,2.6,1.81,4.18c.36,1.58.51,3.25.42,5.02,0,2.51-.93,4.52-2.79,6.06-1.86,1.53-3.76,2.85-5.72,3.97-1.77,1.21-3.65,2.28-5.65,3.2-2,.93-3.86,1.95-5.57,3.07-1.72,1.12-3.16,2.42-4.32,3.9-1.17,1.49-1.79,3.39-1.88,5.72v5.85c-.19,1.58.14,3.14.98,4.67.84,1.54,1.91,2.3,3.21,2.3.09.09.46-.05,1.11-.42.65-.37,1.37-.81,2.15-1.33.79-.5,1.59-1.04,2.37-1.6.79-.56,1.37-.98,1.75-1.25,1.39-.65,2.48-1.19,3.28-1.6.78-.42,1.36-.53,1.74-.35.65,0,1.21.09,1.68.28s.69.88.69,2.09c-.18,2.05-1.07,4.02-2.64,5.93-1.59,1.91-3.3,3.67-5.16,5.3s-3.67,3.04-5.43,4.25c-1.77,1.21-2.93,2.09-3.48,2.65-1.59,1.39-3.05,2.14-4.39,2.23-1.35.1-2.72.14-4.12.14-.84-.09-1.7-.46-2.57-1.12-.88-.65-1.68-1.41-2.37-2.3-.7-.88-1.24-1.79-1.61-2.72-.36-.93-.51-1.72-.41-2.37v-2.37c0-.65-.19-1.34-.57-2.09-.18-.37-.36-.69-.56-.98l.42-2.78v-2.23c0-.37.09-1.37.28-3,.18-1.62.42-3.39.69-5.3.28-1.9.53-3.71.77-5.43.23-1.72.4-2.86.49-3.41.36-.28.56-.56.56-.84s-.05-.56-.14-.83c-.1-.28-.15-.63-.15-1.04s.19-.91.57-1.46c0-1.12.23-2.28.69-3.49.28-.65.56-1.3.84-1.95l1.95-4.6c.18-2.04,1.16-4.16,2.93-6.34,1.76-2.18,3.83-4.16,6.2-5.93,2.36-1.76,4.81-3.18,7.31-4.25,2.51-1.07,4.64-1.51,6.41-1.33Zm-6.27,10.46c-.46,0-.93.35-1.39,1.04s-.93,1.46-1.39,2.3c-.46,1.03-.93,2.09-1.39,3.21-.09.46-.23,1-.42,1.6-.18.61-.32,1.16-.41,1.67-.1.51-.06.93.14,1.25.18.33.56.49,1.11.49.46.1,1.17,0,2.1-.28.92-.28,1.87-.7,2.85-1.25s1.86-1.23,2.65-2.02c.78-.79,1.22-1.65,1.33-2.58v-2.37c0-.46-.15-.88-.42-1.25-.28-.37-.61-.65-.98-.83-.37-.28-.84-.51-1.39-.7l-2.37-.28Z"/><path d="m333.96,31.36c0,1.76.35,3.29,1.04,4.6.7,1.3,1.24,2.74,1.61,4.32.45,1.95,1.46,3.62,2.99,5.01,1.53,1.39,3.28,2.7,5.23,3.9.36.37.81.56,1.32.56s1.09.19,1.75.56c.56.46,1.11.93,1.67,1.39s1.17.93,1.81,1.39c2.51,1.11,5.01,2.18,7.53,3.2,2.51,1.02,5.01,2.14,7.52,3.35,6.23,3.25,11.78,6.66,16.66,10.24,4.88,3.58,8.89,7.92,12.05,13.03.74,1.3,1.55,2.65,2.44,4.04.87,1.39,1.6,2.88,2.15,4.46.18.74.4,1.84.62,3.27.24,1.45.44,2.53.64,3.28.36,2.14.58,4.04.62,5.72s.07,3.76.07,6.27c0,2.14-.28,4.18-.84,6.13-.56,1.95-.93,3.81-1.11,5.57-.18,1.58-.68,2.99-1.46,4.25-.79,1.26-1.55,2.53-2.3,3.83-1.2,1.58-2.55,3.07-4.04,4.46s-2.74,2.88-3.76,4.46c-.75,1.3-1.81,2.28-3.21,2.93-1.38.65-2.78,1.35-4.17,2.09-4.74,2.69-9.88,4.71-15.4,6.06-5.52,1.34-11.12,2.02-16.79,2.02-2.04,0-3.86-.14-5.43-.41-1.58-.28-3.11-.58-4.59-.91-1.5-.33-3.03-.63-4.6-.91-1.58-.28-3.39-.42-5.43-.42-2.14,0-4.05.42-5.72,1.26-1.67.83-2.51,2.23-2.51,4.18v12.4c0,3.35-.22,6.46-.62,9.34-.42,2.87-1.19,5.5-2.3,7.87s-2.65,4.46-4.6,6.27c-1.95,1.81-4.46,3.41-7.52,4.81-2.7,2.14-5.41,3.83-8.15,5.09-2.74,1.25-5.45,1.88-8.15,1.88-4.08,0-7.36-1.23-9.82-3.69-2.46-2.47-3.7-5.74-3.7-9.83,0-2.14.42-4.11,1.26-5.92.83-1.81,2.22-3.09,4.17-3.83,1.3,1.3,2.61,2.46,3.9,3.48,1.12.93,2.3,1.74,3.56,2.44,1.25.7,2.39,1.04,3.41,1.04,1.3,0,2.95-.37,4.94-1.11s3.97-1.77,5.92-3.07c1.3-1.67,2.46-3.67,3.48-5.99,1.03-2.32,1.88-4.8,2.59-7.45.69-2.65,1.2-5.39,1.53-8.22.33-2.84.49-5.6.49-8.3,0-2.32-.07-4.37-.2-6.13-.15-1.76-.28-3.46-.42-5.09-.15-1.62-.26-3.25-.35-4.88-.09-1.63-.14-3.46-.14-5.51v-10.87c0-1.67-.1-3.11-.28-4.32-.18-1.2-.37-2.37-.56-3.48-.19-1.12-.37-2.21-.56-3.28-.19-1.07-.28-2.3-.28-3.69,0-1.02-.05-2.16-.14-3.41-.09-1.25-.07-2.44.07-3.56.14-1.11.4-2.04.77-2.78.36-.74,1.07-1.12,2.09-1.12,2.42,0,4.01.77,4.81,2.3.78,1.53,1.26,3.44,1.39,5.71.14,2.28.23,4.76.27,7.46s.58,5.21,1.61,7.52c1.76,3.35,3.69,6.37,5.78,9.06,2.09,2.69,4.48,4.97,7.17,6.83,2.7,1.86,5.78,3.27,9.28,4.25,3.48.98,7.45,1.46,11.91,1.46s8.57-.65,12.61-1.95c4.05-1.3,7.64-3.14,10.81-5.5,3.15-2.37,5.66-5.21,7.52-8.5,1.86-3.3,2.79-6.99,2.79-11.08,0-2.14-.09-4.3-.28-6.48-.18-2.18-.88-3.78-2.09-4.81-1.21-1.02-2.02-2.14-2.44-3.35-.42-1.2-1.13-2.42-2.15-3.62-1.95-2.13-4.16-4.13-6.62-5.99-2.46-1.86-5.18-3.72-8.15-5.58-2.7-1.67-4.9-3.13-6.62-4.39-1.71-1.25-3.39-2.42-5.01-3.48s-3.39-2.14-5.3-3.2c-1.91-1.07-4.39-2.3-7.45-3.7-2.7-1.39-5.35-3.32-7.95-5.78s-4.88-5.04-6.83-7.73c-1.39-2.42-2.44-4.49-3.13-6.2-.7-1.72-1.24-3.35-1.61-4.88-.37-1.54-.58-3.11-.62-4.74-.05-1.62-.07-3.6-.07-5.92,0-2.14.49-4.28,1.46-6.41.98-2.14,1.55-3.99,1.74-5.57.19-1.76.91-3.27,2.17-4.53,1.26-1.25,2.44-2.48,3.55-3.69,1.02-1.02,2.14-1.81,3.35-2.37,1.21-.56,2.19-1.43,2.93-2.65.75-1.3,2.02-2.18,3.83-2.65,1.81-.46,3.37-.98,4.67-1.53,1.58-.65,3.06-1.09,4.46-1.32s2.88-.44,4.46-.63c2.04,0,4.65.28,7.8.84,3.16.56,6.27,1.21,9.34,1.95,3.53.83,7.25,1.72,11.15,2.65,1.02-.28,1.76-.72,2.22-1.33.46-.6.86-1.21,1.19-1.81.32-.61.71-1.14,1.18-1.6s1.26-.7,2.37-.7c1.3,0,2.28.3,2.93.91s.98,1.19.98,1.74v5.43c0,2.05-.16,3.74-.49,5.09-.33,1.34-.69,2.57-1.11,3.69-.42,1.11-.84,2.23-1.26,3.35-.42,1.11-.76,2.51-1.04,4.18-.37,1.39-.56,2.81-.56,4.25s-.09,2.77-.28,3.97c-.18,1.21-.58,2.21-1.18,2.99-.6.79-1.75,1.19-3.41,1.19-1.77,0-3.05-.53-3.83-1.6-.79-1.07-1.39-2.42-1.81-4.04s-.76-3.39-1.04-5.3c-.28-1.91-.75-3.69-1.39-5.36-1.39-3.44-3.41-5.65-6.06-6.62-2.65-.98-5.69-1.46-9.13-1.46s-6.58.35-9.68,1.05c-3.12.7-5.83,1.81-8.15,3.34-2.32,1.54-4.18,3.51-5.58,5.93-1.38,2.42-2.09,5.3-2.09,8.64Z"/><path d="m433.9,79.43c1.3,0,2.9.05,4.81.14s3.5.42,4.81.98c1.39,0,2.3.56,2.72,1.67.41,1.12.95,2.37,1.6,3.76.37.37.82.88,1.33,1.54s.98,1.32,1.39,2.02c.41.7.76,1.42,1.04,2.16.27.74.42,1.39.42,1.95l-1.12,12.4c0,2.6-.56,5.48-1.67,8.64-1.12,3.16-2.74,5.99-4.88,8.5-.75.75-1.28,1.56-1.61,2.44-.32.88-.65,1.79-.98,2.72-.32.93-.69,1.88-1.11,2.85s-1,1.93-1.75,2.86c-.56.65-1.18,1.44-1.87,2.37-.7.93-1.45,1.88-2.23,2.86-.79.98-1.62,1.86-2.51,2.65s-1.79,1.37-2.72,1.74c-1.39.74-2.55,1.39-3.48,1.95-.93.56-1.77,1.02-2.51,1.39-.75.37-1.51.62-2.3.77s-1.64.21-2.57.21c-1.39,0-2.7-.33-3.9-.98-1.21-.65-2.26-1.51-3.14-2.58-.88-1.07-1.6-2.27-2.15-3.62-.56-1.34-.84-2.72-.84-4.11v-9.33c0-.56-.19-1.07-.56-1.54-.37-.46-.56-1.76-.56-3.9-.1-2.69.56-5.94,1.95-9.75,1.39-3.81,3.04-7.55,4.94-11.22,1.91-3.67,3.81-6.92,5.72-9.75,1.91-2.84,3.37-4.58,4.39-5.23,1.02-.65,1.88-1.37,2.57-2.15.7-.79,1.37-1.51,2.02-2.16.66-.65,1.33-1.19,2.02-1.6.7-.42,1.61-.63,2.72-.63Zm.7,15.89c-1.5,0-3.01.63-4.54,1.88-1.53,1.25-2.95,2.69-4.25,4.32-1.29,1.63-2.46,3.25-3.48,4.88-1.02,1.63-1.71,2.81-2.09,3.56l-1.39,5.29c-.37,1.3-.68,2.56-.91,3.76s-.35,1.95-.35,2.23v2.65c.37.28.7.84.98,1.67.28.84.64,1.67,1.05,2.51.41.84.9,1.58,1.46,2.23.56.65,1.34.98,2.37.98,1.85-.84,3.57-1.67,5.15-2.51,1.3-.74,2.57-1.53,3.83-2.36,1.26-.84,2.11-1.67,2.57-2.51.57-1.3,1.19-2.83,1.88-4.6.7-1.76,1.37-3.44,2.02-5.02-.18-.74.02-1.48.64-2.23.6-.74.91-1.44.91-2.09v-3.91c0-.46-.12-1.28-.35-2.44-.24-1.16-.6-2.36-1.11-3.62-.51-1.25-1.15-2.34-1.88-3.27-.75-.93-1.59-1.39-2.51-1.39Z"/><path d="m474.89,80.96c1.02,0,1.81.32,2.37.98s1.07,1.34,1.53,2.09c.28.65.37,1.54.28,2.65-.09,1.12-.26,2.23-.49,3.35-.24,1.12-.46,2.18-.7,3.2-.23,1.03-.34,1.72-.34,2.09l.42,2.23,1.53,2.79c.36,0,1.09-.53,2.15-1.6,1.07-1.07,2.32-2.39,3.76-3.97,1.44-1.58,2.95-3.28,4.52-5.09,1.58-1.81,3.12-3.51,4.6-5.09,1.49-1.58,2.84-2.9,4.04-3.97,1.21-1.07,2.09-1.6,2.65-1.6.74,0,1.36.46,1.88,1.39.5.93.99,1.91,1.46,2.93.45,1.21.87,2.6,1.25,4.18.09,1.3,0,3.11-.27,5.43-.28,2.32-.73,4.86-1.33,7.6-.61,2.74-1.26,5.53-1.95,8.36-.7,2.84-1.35,5.44-1.95,7.8-.61,2.37-1.12,4.35-1.53,5.93-.42,1.58-.64,2.42-.64,2.51,0,.37-.05.82-.14,1.33s-.14.98-.14,1.39.11.77.34,1.04c.24.28.73.42,1.46.42.57-.37,1.12-.74,1.68-1.12.46-.37.98-.74,1.53-1.12.56-.37,1.16-.79,1.81-1.25,1.58-1.02,3.04-1.97,4.39-2.86,1.35-.88,2.2-1.32,2.57-1.32.56,0,1.17.3,1.81.91.65.6.98,1.19.98,1.74,0,.19-.31.7-.91,1.53-.6.84-1.33,1.72-2.15,2.65-.84.93-1.68,1.77-2.52,2.51-.83.74-1.44,1.11-1.8,1.11,0,.74-.26,1.44-.77,2.09s-1.04.98-1.6.98c-1.49,1.58-2.74,3.11-3.76,4.6-1.02,1.49-2.04,2.86-3.06,4.11-1.03,1.25-2.14,2.25-3.35,2.99-1.21.74-2.74,1.12-4.6,1.12-.65,0-1.32-.23-2.02-.7-.69-.46-1.33-1.04-1.88-1.74s-1-1.44-1.33-2.23c-.32-.79-.49-1.46-.49-2.02l-.41-5.02c.56-2.51,1.27-5.2,2.15-8.08s1.69-5.57,2.44-8.08c.75-2.14,1.35-4.18,1.81-6.14.46-1.95.78-3.8.98-5.57v-1.53c-.37-2.6-1.3-3.9-2.79-3.9-2.22,0-3.99.49-5.3,1.46s-2.37,2.23-3.2,3.76c-.84,1.54-1.56,3.19-2.17,4.95s-1.28,3.44-2.02,5.02c-.46.56-.77,1.09-.91,1.6s-.11,1.14.07,1.88c-.18,1.12-.4,2.23-.62,3.35-.24,1.11-.53,2.18-.91,3.2-1.02,2.98-2,5.92-2.93,8.85-.93,2.93-1.77,5.64-2.51,8.15.46.74.4,1.19-.22,1.33-.6.14-1.18.21-1.74.21s-1.35-.03-2.37-.07-2.02-.21-2.99-.49-1.86-.7-2.65-1.25-1.22-1.34-1.33-2.37c-.18-1.58,0-3.23.57-4.94.56-1.72,1.18-3.32,1.87-4.81.7-1.49,1.37-2.79,2.03-3.9.65-1.12.98-1.86.98-2.23v-5.02l-.7-2.37c0-.56.19-1.28.56-2.16.37-.88.77-1.76,1.19-2.65.42-.88.81-1.69,1.18-2.44.37-.74.56-1.3.56-1.67v-1.95l-.41-5.43c0-.56-.08-1.14-.22-1.74-.14-.61-.58-.91-1.33-.91-.56,0-1.18.14-1.87.42-.7.28-1.39.58-2.1.9-.69.33-1.35.63-1.95.91s-1.09.42-1.46.42h-1.11c-.66-.37-.82-1.09-.49-2.16.32-1.07.49-1.88.49-2.44,2.32-3.25,4.57-6.11,6.76-8.57,2.18-2.46,4.81-4.67,7.87-6.62.65-.37,1.53-.84,2.65-1.39,1.11-.56,2.18-.83,3.2-.83Z"/><path d="m532.81,78.59c1.59,0,2.88.58,3.9,1.74,1.02,1.16,1.54,2.39,1.54,3.69l-1.26,3.91c.56.56.93,1.34,1.11,2.36.09.47.15.98.15,1.54,0,1.86-.22,3.58-.64,5.15-.42,1.58-.62,3.35-.62,5.3v1.11c0,.47-.05,1-.14,1.6-.1.61-.24,1.19-.42,1.74-.19.65-.37,1.35-.56,2.09v1.53c0,1.03-.17,1.86-.49,2.51-.33.65-.68,1.49-1.04,2.51-.19.74-.49,1.51-.91,2.3s-.64,1.7-.64,2.72c0,.37.09.86.28,1.46.18.61.46,1.21.84,1.81.36.61.81,1.12,1.32,1.54.51.41,1.1.62,1.75.62.74,0,1.42-.23,2.02-.7.6-.46,1.09-.98,1.46-1.53.46-.46.95-.86,1.46-1.19.51-.32,1.09-.49,1.75-.49h2.64c.56,0,.88.28.98.84.09.56.15,1.21.15,1.95,0,.28-.42.83-1.26,1.67-.84.83-1.77,1.74-2.79,2.72s-2.04,1.91-3.06,2.78c-1.02.88-1.72,1.46-2.09,1.74-.28.65-.88,1.77-1.81,3.35-.93,1.58-1.95,3.19-3.07,4.81-1.11,1.63-2.29,3.07-3.55,4.32-1.25,1.25-2.35,1.88-3.28,1.88-.65,0-1.37-.21-2.15-.63-.79-.42-1.51-.98-2.17-1.67-.65-.7-1.18-1.41-1.6-2.16-.42-.74-.62-1.49-.62-2.23v-2.23c0-.74-.05-1.39-.14-1.95-.1-.56-.42-.84-.98-.84v-2.65l1.11-3.9v-6.55c0-1.39.18-2.51.56-3.35.37-.83.56-1.9.56-3.2v-1.25c0-.65.22-1.58.62-2.79.42-1.2.86-2.51,1.33-3.9.46-1.39.91-2.76,1.33-4.11.42-1.34.62-2.53.62-3.55,0-.74-.29-1.55-.91-2.44-.6-.88-1.6-1.33-2.99-1.33-.56,0-1.04.19-1.46.56-.42.37-1.6.56-3.55.56-.19-.09-.37-.32-.56-.7-.37-.56-.57-1.25-.57-2.09v-2.23c0-.83.82-2.06,2.45-3.69,1.62-1.63,3.48-3.25,5.57-4.88,2.09-1.63,4.12-3.07,6.07-4.32,1.95-1.25,3.2-1.88,3.75-1.88Zm.42-32.89c.37,0,.86-.07,1.46-.21.6-.14,1.24-.28,1.88-.42.65-.14,1.28-.28,1.88-.41.6-.14,1.04-.21,1.33-.21,1.29.46,2.13,1.25,2.51,2.37.37,1.11.93,2.27,1.67,3.48,0,.74.08,1.49.22,2.23.14.75.2,1.44.2,2.09,0,.56-.18,1.23-.56,2.02-.37.79-.56,1.79-.56,3-.19.65-.44,1.44-.77,2.36-.32.93-.74,1.79-1.25,2.58s-1.12,1.44-1.81,1.95-1.51.67-2.44.49c-1.3,0-2.72-.44-4.25-1.32s-2.66-2.02-3.41-3.41c-.65-.56-.88-1.39-.69-2.51.18-1.11.27-2.09.27-2.93,0-2.51.42-4.55,1.26-6.13s1.86-3.25,3.06-5.02Z"/><path d="m576.74,79.71c1.21.19,2.53.46,3.97.83,1.44.37,2.72.91,3.83,1.6,1.12.7,2,1.62,2.65,2.78.65,1.16.88,2.67.69,4.53,0,1.02-.2,2-.62,2.93s-.93,1.79-1.53,2.58c-.61.79-1.28,1.42-2.02,1.88-.75.47-1.39.7-1.95.7-.75-.09-1.37-.16-1.88-.21-.51-.05-.91-.07-1.19-.07h-1.95c-1.58,0-3.35.05-5.3.14-1.95.09-3.3.41-4.04.98-.75,0-1.18.23-1.33.7-.14.46-.2,1.02-.2,1.67l-1.95,3.06c-.19,1.12-.37,2.18-.56,3.2-.19.84-.37,1.67-.57,2.51-.18.83-.32,1.39-.41,1.67v2.23l-1.12,3.9c-.18.37-.42.74-.69,1.12-.19.37-.37.72-.56,1.04-.19.33-.33.63-.42.91,0,.83.14,1.97.42,3.41.27,1.44.65,2.84,1.11,4.18.46,1.35,1,2.53,1.6,3.56.61,1.02,1.28,1.58,2.03,1.67,1.38,0,2.82-.56,4.31-1.67,1.49-1.12,2.95-2.35,4.4-3.69,1.43-1.35,2.82-2.56,4.17-3.62,1.35-1.07,2.57-1.56,3.7-1.46,1.39.19,2.18.53,2.37,1.04.18.51.18,1.04,0,1.6-.1,1.3-.64,2.79-1.61,4.46s-2.13,3.32-3.48,4.94c-1.35,1.63-2.74,3.11-4.17,4.46-1.45,1.34-2.63,2.3-3.56,2.86-3.06,1.95-5.81,3.57-8.22,4.88-2.42,1.3-5.1,1.85-8.09,1.67-1.29-.1-2.36-.77-3.2-2.02-.84-1.25-1.49-2.69-1.95-4.32-.46-1.62-.82-3.23-1.04-4.8-.24-1.58-.35-2.74-.35-3.49l.42-1.25c0-.37-.05-1-.14-1.88-.1-.88-.17-1.81-.22-2.78s-.09-1.93-.14-2.86-.02-1.63.07-2.09c0-2.87.33-5.13.98-6.76.65-1.62.98-3.36.98-5.22l1.53-3.49v-3.2c.09-.28.33-1,.7-2.16.36-1.16.81-2.46,1.32-3.9.51-1.44,1-2.9,1.46-4.39s.84-2.65,1.12-3.49c0-.56.32-1.25.98-2.09.65-.84,1.41-1.65,2.29-2.44s1.81-1.46,2.79-2.02c.98-.56,1.84-.83,2.59-.83.56-.19.87-.32.98-.42.09-.09.14-.18.14-.28,0-.09.05-.21.14-.35.09-.14.42-.3.98-.49,1.39-.19,2.46-.4,3.21-.63.74-.23,1.44-.46,2.09-.7s1.28-.42,1.88-.56c.6-.14,1.46-.16,2.57-.07Z"/><path d="m245.4,194.02c2.31,0,4.37.65,6.12,1.95,1.77,1.3,3.23,2.9,4.39,4.81,1.17,1.91,2.03,3.92,2.59,6.06.56,2.14.83,4.09.83,5.85,0,4.09-.95,7.62-2.85,10.59-1.91,2.98-5.18,5.62-9.83,7.94-1.2,2.6-3.08,5.64-5.64,9.13-2.56,3.48-5.18,6.78-7.88,9.89-2.69,3.11-5.1,5.76-7.25,7.94-2.13,2.19-3.35,3.28-3.62,3.28h-2.37c-2.97,0-5.01-.77-6.14-2.3-1.11-1.53-2.02-3.46-2.71-5.78-.7-2.32-1.53-4.9-2.51-7.73-.99-2.84-2.77-5.55-5.38-8.15-.74-.84-1.49-1.37-2.22-1.6-.75-.23-1.39-.35-1.95-.35-1.21,0-2.42-.32-3.63-.98-1.2-.65-2.32-.98-3.35-.98-.27-.28-.98-.46-2.09-.56-1.11-.09-2.35-.14-3.7-.14s-2.71.05-4.11.14c-1.39.1-2.51.14-3.35.14-2.42,0-5.16.51-8.22,1.53-3.06,1.03-5.96,2.44-8.71,4.25-2.74,1.81-5.07,4.02-6.96,6.62-1.91,2.6-2.86,5.44-2.86,8.5,0,.19-.17.58-.49,1.19-.33.61-.68,1.25-1.04,1.95-.37.7-.73,1.37-1.05,2.02-.32.65-.49,1.11-.49,1.39-1.11.56-1.88,1.6-2.29,3.14-.42,1.54-.64,3.12-.64,4.74s.09,3.11.28,4.46c.18,1.35.27,2.16.27,2.44,0,1.21.64,2.09,1.88,2.65,1.26.56,2.21.84,2.86.84-.18,0,.31-.3,1.46-.91,1.17-.6,2.56-1.32,4.18-2.16,1.62-.83,3.22-1.62,4.81-2.37,1.58-.74,2.73-1.25,3.48-1.53,2.32-.28,4.21-.56,5.65-.83,1.44-.28,2.73-.53,3.9-.77,1.16-.23,2.31-.41,3.48-.56,1.16-.14,2.62-.21,4.39-.21h6.96c.84,0,2.37.42,4.6,1.25,2.23.84,4.62,2.02,7.18,3.56,2.55,1.54,5.01,3.37,7.38,5.51,2.37,2.14,4.12,4.51,5.23,7.1v5.85c0,.56-.49,1.37-1.46,2.44-.98,1.07-2.04,2.15-3.21,3.27-1.16,1.12-2.22,2.11-3.2,2.99-.98.88-1.46,1.47-1.46,1.75,0,1.21-.73,2.35-2.17,3.41s-3.3,2.07-5.57,2.99c-2.28.93-4.79,1.79-7.53,2.58-2.74.79-5.39,1.46-7.94,2.02-2.56.56-4.91,1-7.04,1.33-2.13.32-3.67.49-4.59.49-1.77,0-4.28-.72-7.53-2.16-3.25-1.44-6.5-3.04-9.75-4.81-3.81-2.04-7.85-4.37-12.12-6.97-.56,0-1.53,1.12-2.93,3.35-1.39,2.23-2.88,4.83-4.46,7.8-1.59,2.98-3.07,5.95-4.47,8.92-1.39,2.98-2.37,5.21-2.93,6.69-.56,1.11-.88,2.6-.98,4.46-.09,1.86-.14,3.07-.14,3.62s.07,1.46.2,2.72c.15,1.25.22,2.16.22,2.72,0,1.76-.46,3.67-1.39,5.71-.93,2.05-1.39,4.51-1.39,7.39-.09,1.58-.14,3.02-.14,4.32-.09,1.11-.14,2.15-.14,3.14v1.88c0,.28.07.82.2,1.6s.33,1.63.56,2.51c.23.88.42,1.72.56,2.51.15.79.22,1.32.22,1.6,0,3.53.83,7.52,2.51,11.99,1.67,4.46,3.86,9.01,6.54,13.65,2.7,4.65,5.76,9.22,9.2,13.73,3.44,4.51,6.97,8.52,10.59,12.05,3.63,3.53,7.18,6.36,10.66,8.5,3.49,2.14,6.58,3.2,9.27,3.2.57.84,1.61,1.55,3.14,2.16,1.53.6,3.13,1.09,4.81,1.46,1.67.37,3.21.63,4.59.77,1.39.14,2.23.21,2.52.21,1.76-.56,3.31-.7,4.66-.42,1.35.28,2.9.42,4.67.42.27,0,.62-.02,1.04-.07.42-.05,1.18-.12,2.3-.21,1.11-.09,2.66-.21,4.66-.35,2.01-.14,4.76-.31,8.3-.49,2.78-.75,5.39-1.39,7.8-1.95,2.04-.47,3.99-.91,5.85-1.33s3.11-.63,3.76-.63c.56,0,1.32-.14,2.29-.41s1.75-.42,2.3-.42c1.77,0,3.81-.49,6.14-1.46,2.31-.98,4.75-2.23,7.31-3.76,2.55-1.53,5.06-3.18,7.52-4.94,2.46-1.76,4.69-3.44,6.69-5.02,2-1.58,3.67-2.95,5.02-4.11,1.34-1.16,2.11-1.83,2.29-2.02,2.32-2.88,4.49-5.94,6.49-9.2,2-3.25,4.48-6.36,7.45-9.34.93-1.85,1.95-4.62,3.07-8.29,1.11-3.67,2.15-7.48,3.13-11.43.98-3.95,1.79-7.67,2.44-11.15.65-3.49.98-5.97.98-7.46,0-2.14-.26-4.28-.77-6.41-.51-2.13-1.55-3.48-3.13-4.04h-6.96c-2.52.46-4.51,1.39-6,2.78s-2.71,2.95-3.69,4.67c-.98,1.72-1.79,3.51-2.44,5.37-.66,1.86-1.37,3.55-2.17,5.09-.79,1.53-1.79,2.81-2.99,3.83-1.21,1.02-2.79,1.53-4.74,1.53-4.18,0-7.03-.67-8.57-2.02-1.53-1.35-2.29-3.79-2.29-7.32,0-.65.18-1.16.56-1.53.36-.37.56-1.16.56-2.37,0-.56.07-.92.2-1.11.15-.19.22-.84.22-1.96,0-.37.36-.99,1.11-1.88s1.72-1.88,2.93-3c1.2-1.11,2.57-2.32,4.12-3.62,1.53-1.3,3.08-2.6,4.66-3.9,3.72-3.06,7.99-6.32,12.83-9.75.83-.28,1.95-.58,3.35-.91,1.39-.32,2.73-.62,4.04-.91,1.3-.28,2.46-.46,3.48-.56,1.02-.09,1.62-.05,1.81.14,1.76,0,3.46-.19,5.08-.56,1.63-.37,3.23-.77,4.81-1.19,1.59-.41,3.19-.81,4.81-1.18,1.63-.37,3.32-.56,5.09-.56.56,0,1.25.07,2.09.21.84.14,1.62.33,2.37.56.75.24,1.39.42,1.95.56.56.14.88.21.98.21,1.77,0,3.3-.07,4.6-.21,1.29-.14,2.73-.58,4.32-1.33,2.04-1.49,3.59-2.81,4.66-3.97s2.06-2.14,2.99-2.93c.93-.79,2.03-1.39,3.28-1.81,1.26-.41,3.04-.62,5.36-.62s4.43.81,6.34,2.44c1.91,1.63,2.86,3.92,2.86,6.89,0,1.12-.4,2.6-1.18,4.46-.79,1.86-1.84,3.65-3.14,5.36-1.29,1.72-2.78,3.2-4.46,4.46-1.67,1.25-3.39,1.88-5.16,1.88-.56,0-1.11-.19-1.67-.56s-1.17-.56-1.81-.56c-.27,0-.83.03-1.67.07s-1.7.09-2.59.14c-.87.05-1.74.1-2.57.14s-1.39.07-1.67.07c-.56,0-1.46-.07-2.72-.21-1.26-.14-2.15-.21-2.72-.21s-1.36.14-2.44.42c-1.07.28-2.11.63-3.13,1.05-1.02.41-1.91.9-2.65,1.46-.74.56-1.11,1.11-1.11,1.67,0,.65.22,1.26.62,1.81.42.56.64,1.12.64,1.67,0,1.95-.35,4.41-1.04,7.38-.7,2.98-1.59,6.11-2.65,9.41-1.07,3.3-2.26,6.67-3.55,10.1-1.3,3.44-2.56,6.6-3.76,9.47-1.21,2.88-2.3,5.35-3.28,7.39s-1.64,3.35-2.02,3.9c-3.25,6.41-7.45,12.77-12.61,19.09-5.16,6.32-10.94,12.05-17.35,17.21-6.41,5.15-13.21,9.5-20.41,13.03-7.2,3.53-14.42,5.71-21.67,6.55-2.97,1.11-5.57,2.23-7.8,3.35-2.23,1.11-3.62,1.67-4.18,1.67-1.76,0-3.73-.07-5.92-.21-2.18-.14-3.97-.21-5.36-.21-6.41,0-12.89-.42-19.44-1.25-6.55-.84-12.98-2.35-19.3-4.53-6.32-2.18-12.41-5.15-18.26-8.92-5.85-3.76-11.24-8.52-16.16-14.28-.37-.56-1.02-1.62-1.95-3.2s-1.95-3.44-3.06-5.57c-1.12-2.14-2.28-4.43-3.49-6.9-1.2-2.46-2.29-4.9-3.27-7.31-.98-2.42-1.79-4.67-2.44-6.76-.66-2.09-.99-3.83-.99-5.23,0-.74-.29-2.13-.9-4.18-.61-2.04-1.26-4.16-1.95-6.34-.7-2.18-1.35-4.18-1.95-5.99-.61-1.81-.91-2.86-.91-3.14v-5.85c0-.56-.07-1.3-.22-2.23-.14-.93-.29-1.86-.49-2.79-.18-1.02-.37-2.09-.56-3.2,0-.83.11-1.65.35-2.44.23-.79.51-1.58.84-2.37.32-.79.6-1.62.83-2.51.24-.88.35-1.93.35-3.14.37-4.55,1.11-9.43,2.23-14.63,1.11-5.2,2.64-10.43,4.59-15.67,1.95-5.25,4.37-10.36,7.25-15.33,2.88-4.97,6.32-9.5,10.31-13.59,0-.28-.18-.83-.56-1.67-.37-.83-.76-1.83-1.18-2.99s-.82-2.44-1.19-3.83c-.36-1.39-.56-2.84-.56-4.32,0-1.12.05-1.83.14-2.16.1-.32.22-.77.35-1.32.14-.56.28-1.55.42-3,.14-1.44.2-3.92.2-7.46,0-.37-.05-.67-.14-.9s-.14-.58-.14-1.05c0-2.51.74-4.64,2.23-6.41,1.47-1.76,3.57-3.99,6.26-6.69,0-1.85.88-3.92,2.65-6.2,1.76-2.28,4.11-4.53,7.03-6.76,2.94-2.23,6.32-4.41,10.18-6.55,3.84-2.14,7.85-4.04,11.98-5.72,4.14-1.67,8.27-2.99,12.41-3.97,4.13-.98,7.96-1.46,11.5-1.46,1.58,0,2.86.14,3.83.41s2.15.42,3.55.42c2.23,0,4.74.82,7.52,2.44,2.79,1.63,5.47,3.44,8.02,5.44,2.55,2,4.76,3.88,6.62,5.64s2.97,2.78,3.35,3.07c2.42-1.86,4.55-3.72,6.41-5.57,1.58-1.58,3.04-3.32,4.39-5.23,1.35-1.91,2.02-3.69,2.02-5.36,0-.84-.2-1.79-.62-2.86s-.86-2.16-1.33-3.28c-.46-1.11-.91-2.18-1.33-3.2-.41-1.02-.62-1.81-.62-2.37,0-1.49.31-2.95.91-4.39.6-1.44,1.42-2.76,2.44-3.97,1.02-1.21,2.13-2.18,3.35-2.93,1.2-.74,2.46-1.12,3.76-1.12Zm-74.28,89.46c-.27,0-1.02.19-2.22.56-1.21.37-2.61.82-4.18,1.33s-3.25,1.04-5.01,1.6c-1.77.56-3.4.98-4.89,1.25v2.23c.84,1.21,2.3,2.39,4.4,3.55,2.09,1.16,4.29,2.21,6.61,3.14,2.32.93,4.54,1.67,6.62,2.23,2.09.56,3.55.83,4.39.83,2.42,0,4.23-.14,5.43-.42,1.21-.28,2.37-.41,3.48-.41.66,0,1.33-.26,2.03-.77.69-.5,1.32-.77,1.87-.77.28,0,.66-.28,1.12-.83.46-.56.95-1.25,1.46-2.09.51-.83.93-1.76,1.25-2.78.33-1.02.49-1.95.49-2.79s-.56-1.62-1.67-2.37c-1.11-.74-2.42-1.37-3.9-1.88-1.49-.51-2.99-.91-4.52-1.19-1.54-.28-2.72-.42-3.56-.42h-9.2Z"/><path d="m314.36,378.1c0-1.76.32-3.41.98-4.94.65-1.54,1.51-2.88,2.57-4.04,1.07-1.16,2.35-2.09,3.83-2.79,1.49-.7,3.06-1.04,4.74-1.04,2.42,0,4.97.79,7.67,2.37,1.38,0,2.76.4,4.11,1.19s2.3,1.55,2.86,2.3c1.39,1.12,2.39,2,2.99,2.65.6.65.91,1.58.91,2.79.56,1.3,1.2,2.53,1.95,3.69.75,1.16,1.77,1.74,3.06,1.74.57,0,.95-.51,1.19-1.53.23-1.02.76-1.81,1.6-2.37,1.11-1.95,2.26-3.92,3.41-5.92,1.17-2,3.08-3.65,5.78-4.95,1.21-1.21,2.06-2.02,2.57-2.44s1.33-.63,2.45-.63c2.13,0,3.66.16,4.59.49.93.33,2,.82,3.21,1.46,1.58,1.86,2.87,3.58,3.9,5.16,1.02,1.58,1.53,3.35,1.53,5.3,0,1.3-.46,2.32-1.39,3.06-.93.75-1.77,1.54-2.51,2.37-.37.93-.62,1.72-.77,2.37-.14.65-.29,1.16-.49,1.53-.18.37-.49.65-.91.84s-1.09.28-2.02.28c-1.11,0-2.04-.32-2.79-.98-.74-.65-1.44-1.37-2.09-2.16s-1.33-1.51-2.02-2.16c-.7-.65-1.51-.98-2.44-.98-1.11,0-2.21.35-3.28,1.04s-2.02,1.49-2.86,2.37c-.84.88-1.51,1.81-2.02,2.79s-.77,1.74-.77,2.3c0,1.39.4,2.63,1.19,3.69.78,1.07,1.18,2.16,1.18,3.28v3.9c0,.74.05,1.3.15,1.67.09.37.14.83.14,1.39,0,.65.07,1.21.2,1.67.15.46.22,1.07.22,1.81,0,1.03.16,1.81.49,2.37.32.56.71,1.04,1.18,1.46s.95.83,1.46,1.25.91.95,1.19,1.6c.56,1.3,1.18,2.37,1.88,3.2.69.83,1.97,1.58,3.83,2.23.65.28,1.38.46,2.22.56.84.1,1.62.24,2.37.42.74.19,1.35.51,1.81.98s.69,1.21.69,2.23c0,2.51-.62,4.63-1.88,6.34-1.25,1.72-3.22,2.57-5.92,2.57-.56,0-.95.14-1.18.42-.24.28-.77.42-1.61.42-.56,0-1.18-.14-1.88-.42-.69-.28-1.32-.42-1.87-.42-1.39,0-2.54-.23-3.42-.7-.87-.46-1.69-1.07-2.44-1.81-.74-.74-1.46-1.6-2.15-2.58s-1.51-1.97-2.44-2.99c-.65-.46-1.28-.84-1.88-1.12s-.91-1.2-.91-2.78c-.37-.56-.71-1.02-1.04-1.39-.33-.37-.6-.72-.84-1.04-.23-.32-.42-.67-.56-1.05-.14-.37-.2-.88-.2-1.53,0-1.39-.17-2.58-.49-3.56-.33-.98-.68-1.46-1.04-1.46-.1,0-.37.19-.84.56-.46.37-.95.83-1.46,1.39-.51.56-.98,1.12-1.39,1.67-.42.56-.62,1.03-.62,1.39-.57,1.3-.88,2.11-.98,2.44-.1.33-.15.82-.15,1.46s-.16,1.16-.49,1.54c-.32.37-.69.72-1.11,1.04s-.84.67-1.26,1.04c-.41.37-.76.84-1.04,1.39-1.95,2.69-4.06,4.72-6.34,6.06s-5.45,2.02-9.55,2.02c-.27.19-.56.33-.83.42-.56.28-1.21.42-1.95.42-.19-.1-.42-.23-.7-.42-.18-.09-.46-.19-.84-.28-.36-.1-.74-.14-1.11-.14-1.95,0-3.53-.81-4.74-2.44-1.2-1.62-1.8-3.5-1.8-5.64,0-.93.07-1.67.2-2.23.14-.56.35-1.05.62-1.46.28-.42.66-.82,1.12-1.19.46-.37.98-.84,1.53-1.39,1.29-1.3,2.18-2.53,2.64-3.69.46-1.16,1.39-1.74,2.79-1.74.93,0,1.75.35,2.44,1.04.7.7,1.42,1.46,2.17,2.3.74.84,1.55,1.6,2.44,2.3.87.7,2.02,1.04,3.41,1.04.65,0,1.25-.21,1.8-.62.57-.42,1.1-.93,1.61-1.54.51-.6.95-1.2,1.32-1.81.37-.61.7-1.09.98-1.46,1.96-1.21,3.74-2.9,5.38-5.09,1.62-2.18,2.44-4.62,2.44-7.32v-5.85c0-1.3.07-2.46.2-3.48s-.44-1.91-1.75-2.65c-.74-.93-1.37-1.74-1.87-2.44-.52-.7-1.03-1.3-1.54-1.81-.51-.5-1.09-.98-1.74-1.39-.66-.42-1.39-.86-2.23-1.33-1.3-.83-2.39-1.32-3.28-1.46-.88-.14-2.11-.21-3.69-.21-.19-.28-.42-.35-.7-.21-.27.14-.6.35-.98.63s-.74.56-1.11.83c-.37.28-.75.42-1.11.42-1.12,0-2.05-.37-2.79-1.11-.75-.74-1.11-1.67-1.11-2.79Z"/><path d="m404.94,350.93c.28,0,.77.16,1.46.49.7.32,1.39.74,2.09,1.25.7.51,1.33,1.09,1.88,1.74.57.65.84,1.3.84,1.95-.84,2.05-1.62,3.95-2.37,5.72-.65,1.58-1.3,3.14-1.95,4.67s-1.16,2.72-1.53,3.56c-.28.37-.79,1.14-1.53,2.3-.75,1.16-1.53,2.42-2.37,3.76-.84,1.34-1.55,2.67-2.17,3.97-.6,1.3-.9,2.23-.9,2.79l1.25,1.95c.93,0,2.35-.93,4.25-2.79,1.91-1.85,3.92-3.9,6.07-6.13,2.13-2.23,4.22-4.27,6.26-6.13,2.05-1.86,3.72-2.79,5.02-2.79,1.39,0,2.46.72,3.2,2.16.75,1.44,1.33,3.04,1.75,4.81s.67,3.44.77,5.02c.09,1.58.14,2.51.14,2.78,0,.56-.2,1.65-.62,3.28s-.73,3.09-.91,4.39c-.37.28-.56.58-.56.91s.05.58.14.77c.09.28.23.51.42.7-.09,1.02-.49,2.48-1.19,4.39-.69,1.91-1.46,3.79-2.29,5.64-.84,1.86-1.63,3.56-2.37,5.09-.75,1.53-1.26,2.44-1.53,2.72-1.03,1.58-2.12,2.98-3.28,4.18-1.17,1.21-2.39,2.36-3.7,3.48-1.3,1.21-2.88,2.39-4.74,3.56s-3.39,2.72-4.59,4.67c-1.39,1.3-2.86,2.42-4.39,3.35-1.53.93-2.95,1.93-4.25,2.99-1.3,1.07-2.32,2.27-3.06,3.62-.75,1.34-.98,3.04-.7,5.09v2.79c-.09,1.3-.23,2.39-.42,3.27-.18.88-.4,1.81-.62,2.79-.24.98-.44,2.06-.62,3.27-.19,1.21-.28,2.84-.28,4.88-.09,1.67-.2,2.98-.35,3.91-.14.92-.32,1.67-.56,2.23-.23.56-.44,1.02-.62,1.39-.19.37-.33.83-.42,1.39v3c0,1.25-.09,2.86-.27,4.81v3.06c0,1.95.49,3.09,1.46,3.41.98.33,2.15.49,3.55.49h2.64c1.39,0,2.59.63,3.56,1.88s1.46,2.58,1.46,3.97c0,.56-.35,1.11-1.04,1.67-.7.56-1.61,1.16-2.72,1.81-1.39,0-2.81.42-4.25,1.25-1.44.84-3.13,1.16-5.08.98h-5.44c-1.95.46-3.95.77-5.99.91s-4.04.49-5.99,1.04c-1.02-.09-1.79-.09-2.3,0s-.98.23-1.39.42-.84.37-1.26.56c-.41.19-.94.28-1.6.28-.56-.09-1.09-.37-1.6-.83s-.93-1-1.26-1.6c-.32-.6-.58-1.19-.76-1.74-.19-.56-.28-.98-.28-1.25.09-1.12.44-1.93,1.04-2.44.61-.51,1.33-.88,2.17-1.12.83-.23,1.69-.35,2.57-.35h2.3c.37-.28.82-.49,1.33-.63.51-.14.98-.32,1.38-.56.42-.23.79-.51,1.12-.83.33-.33.49-.82.49-1.47.27-.65.58-1.53.91-2.64.32-1.12.62-2.19.9-3.21.28-1.02.54-1.97.77-2.86.24-.88.4-1.46.49-1.74v-1.25c0-.37.14-1.32.42-2.86.27-1.53.65-3.14,1.11-4.81.37-1.95.88-4.13,1.53-6.55.19-.56.42-1.07.7-1.53.18-.46.36-.91.56-1.32.18-.42.28-.77.28-1.05,0-.65.07-1.74.2-3.27.14-1.54.2-4.07.2-7.6l1.54-3.9,1.53-8.92.42-3.9c0-.28.14-.72.41-1.32.28-.61.61-1.28.98-2.02.37-.74.7-1.53.99-2.36.27-.84.41-1.63.41-2.37.09-1.3.17-2.51.22-3.62.05-1.12.11-2.18.2-3.2.09-1.03.19-2.09.28-3.21.27-1.3.6-2.55.98-3.76.27-1.02.56-2.04.84-3.07.27-1.02.6-1.86.98-2.51l.27-7.81c0-1.76-.88-2.65-2.64-2.65-.75,0-1.46.33-2.17.98-.69.65-1.51,1.34-2.44,2.09-2.04,2.05-3.62,3.07-4.74,3.07-.46-.09-.74-.21-.83-.35-.09-.14-.19-.3-.28-.49-.09-.18-.09-.41,0-.7,0-1.85.6-3.55,1.81-5.09,1.2-1.53,2.42-3.18,3.62-4.94,1.39-2.6,3.07-5.11,5.02-7.52,1.95-2.42,3.95-4.85,5.99-7.31,2.04-2.46,3.97-4.97,5.78-7.52,1.81-2.56,3.32-5.32,4.52-8.3.46-.18.88-.37,1.26-.56.93-.37,1.76-.56,2.51-.56Zm5.16,36.79c-.75,0-1.66.32-2.72.98-1.07.65-2.13,1.42-3.2,2.3-1.08.88-1.98,1.72-2.72,2.51-.75.79-1.11,1.32-1.11,1.6-1.3,2.7-2.35,5.14-3.14,7.32-.79,2.18-1.69,4.52-2.71,7.04v3.9c0,.74.16,1.58.49,2.51.32.93,1.46,1.49,3.41,1.67.56,0,1.36-.37,2.44-1.12,1.07-.74,2.11-1.62,3.13-2.65,1.21-1.11,2.46-2.41,3.76-3.9.74-.46,1.44-1.04,2.09-1.74s1.39-1.41,2.23-2.16c.56-1.21.88-2.02.98-2.44s.14-1.28.14-2.58c0-.28-.05-.62-.14-1.04s-.19-.86-.28-1.32c-.18-.46-.33-.98-.42-1.54v-4.25c0-.7-.05-1.39-.14-2.09s-.31-1.34-.62-1.95c-.33-.6-.82-.95-1.46-1.04Z"/><path d="m457.83,364.17c1.95,0,3.61.35,4.96,1.05,1.34.7,2.44,1.65,3.27,2.86.84,1.21,1.44,2.6,1.81,4.18s.51,3.25.42,5.02c0,2.51-.93,4.52-2.79,6.06-1.86,1.53-3.75,2.85-5.72,3.97-1.76,1.21-3.64,2.28-5.64,3.2-2,.93-3.86,1.95-5.58,3.07-1.71,1.12-3.15,2.42-4.32,3.9-1.16,1.49-1.78,3.39-1.88,5.72v5.85c-.18,1.58.15,3.14.98,4.67.84,1.54,1.91,2.3,3.21,2.3.09.09.46-.05,1.11-.42.66-.37,1.37-.81,2.17-1.33.78-.5,1.58-1.04,2.37-1.6.78-.56,1.37-.98,1.74-1.25,1.39-.65,2.48-1.19,3.28-1.6s1.37-.53,1.75-.35c.65,0,1.2.09,1.67.28s.7.88.7,2.09c-.19,2.05-1.08,4.02-2.65,5.93-1.58,1.91-3.3,3.67-5.15,5.3-1.86,1.63-3.67,3.04-5.44,4.25-1.76,1.21-2.93,2.09-3.48,2.65-1.58,1.39-3.04,2.14-4.39,2.23-1.35.1-2.72.14-4.11.14-.84-.09-1.7-.46-2.59-1.12-.88-.65-1.67-1.41-2.37-2.3-.69-.88-1.22-1.79-1.6-2.72s-.51-1.72-.42-2.37v-2.37c0-.65-.18-1.34-.56-2.09-.19-.37-.37-.69-.56-.98l.42-2.78v-2.23c0-.37.09-1.37.27-3,.19-1.62.42-3.39.7-5.3.27-1.9.53-3.71.76-5.43.24-1.72.4-2.86.49-3.41.37-.28.56-.56.56-.84s-.05-.56-.14-.83-.14-.63-.14-1.04.18-.91.56-1.46c0-1.12.23-2.28.69-3.49.28-.65.57-1.3.84-1.95l1.95-4.6c.19-2.04,1.17-4.16,2.93-6.34,1.77-2.18,3.83-4.16,6.2-5.93,2.37-1.76,4.81-3.18,7.31-4.25s4.65-1.51,6.41-1.33Zm-6.27,10.46c-.46,0-.92.35-1.38,1.04s-.93,1.46-1.39,2.3c-.46,1.03-.93,2.09-1.39,3.21-.09.46-.24,1-.42,1.6-.19.61-.33,1.16-.42,1.67s-.05.93.14,1.25c.19.33.57.49,1.12.49.46.1,1.16,0,2.09-.28s1.88-.7,2.86-1.25c.98-.56,1.86-1.23,2.64-2.02.79-.79,1.24-1.65,1.33-2.58v-2.37c0-.46-.14-.88-.42-1.25-.27-.37-.6-.65-.98-.83-.37-.28-.83-.51-1.39-.7l-2.37-.28Z"/><path d="m489.49,363.33c1.02-.19,1.7-.05,2.02.42.33.46,1.1.98,2.3,1.53,1.02.56,1.91,1.21,2.65,1.95.74.74,1.11,1.63,1.11,2.65-.09.46-.19.98-.28,1.53-.18,1.21-.09,2.37.28,3.49,0,.83-.17,1.83-.49,2.99-.33,1.16-.4,2.11-.22,2.86.19.37.46.74.84,1.12.28.28.58.53.91.77s.62.26.91.07c.93-.19,1.93-1.07,2.99-2.65,1.07-1.58,2.11-3.35,3.14-5.3,1.02-1.95,2.04-3.86,3.06-5.71,1.02-1.86,1.95-3.11,2.79-3.76l4.32-1.12c.56-.18,1.18-.23,1.88-.14.69.09,1.22.14,1.6.14,1.76,1.03,2.88,2.44,3.35,4.25.46,1.81.78,3.23.98,4.25.09,1.3-.35,3.02-1.33,5.15-.98,2.14-2.21,3.9-3.7,5.3-.65.37-1.25.67-1.8.9-.57.24-1.12.44-1.68.63-.46,0-.82-.02-1.04-.07-.24-.05-.53-.16-.91-.35-.46-.18-.91-.3-1.33-.35-.41-.05-.9-.07-1.46-.07-1.2,0-2.35.46-3.41,1.39-1.07.93-2.11,1.91-3.13,2.93-1.59,1.96-2.81,4.16-3.7,6.62-.88,2.46-1.33,4.76-1.33,6.89-.65.65-1.42,1.46-2.29,2.44-.88.98-1.56,2.11-2.02,3.42-.57,1.3-.82,2.64-.77,4.04s-.2,2.74-.77,4.04c.09,1.12.09,2.39,0,3.83s-.25,2.95-.49,4.53c-.23,1.58-.53,3.08-.9,4.52-.37,1.44-.79,2.72-1.26,3.83-.65.46-1.44.88-2.37,1.25-.93.37-1.91.65-2.93.84-1.11.28-2.32.46-3.63.56-.46,0-1.07-.37-1.8-1.12-.37-.37-.7-.74-.98-1.11l-1.95-3.9c-.1-.65,0-1.76.27-3.35.28-1.58.6-3.18.98-4.81.37-1.62.73-3.09,1.04-4.39.33-1.3.49-2.04.49-2.23,2.05-3.07,3.39-6.29,4.05-9.68.65-3.39,1.34-6.76,2.09-10.1l-1.11-9.2c-.46-1.21-1.04-1.81-1.75-1.81s-1.42.1-2.15.28c-1.49.28-2.56.68-3.21,1.19-.65.52-1.2,1.05-1.67,1.6-.46.56-.98,1.09-1.53,1.6-.57.51-1.54.86-2.94,1.04-.74,0-1.2-.46-1.38-1.39-.19-.92-.37-1.76-.57-2.51-.18-.84-.05-1.65.42-2.44s1.09-1.54,1.88-2.23c.79-.7,1.7-1.39,2.72-2.09,1.02-.7,1.95-1.42,2.79-2.16,1.11-1.21,2.09-2.53,2.93-3.97.83-1.44,1.67-2.79,2.51-4.04.84-1.25,1.78-2.32,2.86-3.2,1.07-.88,2.44-1.42,4.11-1.6Z"/><path d="m539.3,363.33c1.59,0,2.88.58,3.9,1.74s1.54,2.39,1.54,3.69l-1.26,3.91c.56.56.93,1.34,1.11,2.36.09.47.15.98.15,1.54,0,1.86-.22,3.58-.64,5.15-.42,1.58-.62,3.35-.62,5.3v1.11c0,.47-.05,1-.14,1.6-.1.61-.24,1.19-.42,1.74-.19.65-.37,1.35-.56,2.09v1.53c0,1.03-.17,1.86-.49,2.51-.33.65-.68,1.49-1.04,2.51-.19.74-.49,1.51-.91,2.3s-.64,1.7-.64,2.72c0,.37.09.86.28,1.46.18.61.46,1.21.84,1.81.36.61.81,1.12,1.32,1.54.51.41,1.1.62,1.75.62.74,0,1.42-.23,2.02-.7.6-.46,1.09-.98,1.46-1.53.46-.46.95-.86,1.46-1.19.51-.32,1.09-.49,1.75-.49h2.64c.56,0,.88.28.98.84.09.56.15,1.21.15,1.95,0,.28-.42.83-1.26,1.67-.84.83-1.77,1.74-2.79,2.72s-2.04,1.91-3.06,2.78c-1.02.88-1.72,1.46-2.09,1.74-.28.65-.88,1.77-1.81,3.35-.93,1.58-1.95,3.19-3.07,4.81-1.11,1.63-2.29,3.07-3.55,4.32-1.25,1.25-2.35,1.88-3.28,1.88-.65,0-1.37-.21-2.15-.63-.79-.42-1.51-.98-2.17-1.67-.65-.7-1.18-1.41-1.6-2.16-.42-.74-.62-1.49-.62-2.23v-2.23c0-.74-.05-1.39-.14-1.95-.1-.56-.42-.84-.98-.84v-2.65l1.11-3.9v-6.55c0-1.39.18-2.51.56-3.35.37-.83.56-1.9.56-3.2v-1.25c0-.65.22-1.58.62-2.79.42-1.2.86-2.51,1.33-3.9.46-1.39.91-2.76,1.33-4.11.42-1.34.62-2.53.62-3.55,0-.74-.29-1.55-.91-2.44-.6-.88-1.6-1.33-2.99-1.33-.56,0-1.04.19-1.46.56-.42.37-1.6.56-3.55.56-.19-.09-.37-.32-.56-.7-.37-.56-.57-1.25-.57-2.09v-2.23c0-.83.82-2.06,2.45-3.69,1.62-1.63,3.48-3.25,5.57-4.88,2.09-1.63,4.12-3.07,6.07-4.32s3.2-1.88,3.75-1.88Zm.42-32.89c.37,0,.86-.07,1.46-.21.6-.14,1.24-.28,1.88-.42.65-.14,1.28-.28,1.88-.41.6-.14,1.04-.21,1.33-.21,1.29.46,2.13,1.25,2.51,2.37.37,1.11.93,2.27,1.67,3.48,0,.74.08,1.49.22,2.23.14.75.2,1.44.2,2.09,0,.56-.18,1.23-.56,2.02-.37.79-.56,1.79-.56,3-.19.65-.44,1.44-.77,2.36-.32.93-.74,1.79-1.25,2.58-.51.79-1.12,1.44-1.81,1.95s-1.51.67-2.44.49c-1.3,0-2.72-.44-4.25-1.32-1.53-.88-2.66-2.02-3.41-3.41-.65-.56-.88-1.39-.69-2.51.18-1.11.27-2.09.27-2.93,0-2.51.42-4.55,1.26-6.13s1.86-3.25,3.06-5.02Z"/><path d="m584.1,364.17c1.95,0,3.61.35,4.96,1.05,1.34.7,2.44,1.65,3.27,2.86.84,1.21,1.44,2.6,1.81,4.18s.51,3.25.42,5.02c0,2.51-.93,4.52-2.79,6.06-1.86,1.53-3.75,2.85-5.72,3.97-1.76,1.21-3.64,2.28-5.64,3.2-2,.93-3.86,1.95-5.58,3.07-1.71,1.12-3.15,2.42-4.32,3.9-1.16,1.49-1.78,3.39-1.88,5.72v5.85c-.18,1.58.15,3.14.98,4.67.84,1.54,1.91,2.3,3.21,2.3.09.09.46-.05,1.11-.42.66-.37,1.37-.81,2.17-1.33.78-.5,1.58-1.04,2.37-1.6.78-.56,1.37-.98,1.74-1.25,1.39-.65,2.48-1.19,3.28-1.6s1.37-.53,1.75-.35c.65,0,1.2.09,1.67.28s.7.88.7,2.09c-.19,2.05-1.08,4.02-2.65,5.93-1.58,1.91-3.3,3.67-5.15,5.3-1.86,1.63-3.67,3.04-5.44,4.25-1.76,1.21-2.93,2.09-3.48,2.65-1.58,1.39-3.04,2.14-4.39,2.23-1.35.1-2.72.14-4.11.14-.84-.09-1.7-.46-2.59-1.12-.88-.65-1.67-1.41-2.37-2.3-.69-.88-1.22-1.79-1.6-2.72-.37-.93-.51-1.72-.42-2.37v-2.37c0-.65-.18-1.34-.56-2.09-.19-.37-.37-.69-.56-.98l.42-2.78v-2.23c0-.37.09-1.37.27-3,.19-1.62.42-3.39.7-5.3.27-1.9.53-3.71.76-5.43.24-1.72.4-2.86.49-3.41.37-.28.56-.56.56-.84s-.05-.56-.14-.83-.14-.63-.14-1.04.18-.91.56-1.46c0-1.12.23-2.28.69-3.49.28-.65.57-1.3.84-1.95l1.95-4.6c.19-2.04,1.17-4.16,2.93-6.34,1.77-2.18,3.83-4.16,6.2-5.93,2.37-1.76,4.81-3.18,7.31-4.25s4.65-1.51,6.41-1.33Zm-6.27,10.46c-.46,0-.92.35-1.38,1.04s-.93,1.46-1.39,2.3c-.46,1.03-.93,2.09-1.39,3.21-.09.46-.24,1-.42,1.6-.19.61-.33,1.16-.42,1.67s-.05.93.14,1.25c.19.33.57.49,1.12.49.46.1,1.16,0,2.09-.28s1.88-.7,2.86-1.25c.98-.56,1.86-1.23,2.64-2.02.79-.79,1.24-1.65,1.33-2.58v-2.37c0-.46-.14-.88-.42-1.25-.27-.37-.6-.65-.98-.83-.37-.28-.83-.51-1.39-.7l-2.37-.28Z"/><path d="m615.96,365.7c1.02,0,1.8.32,2.37.98.56.65,1.07,1.34,1.53,2.09.27.65.36,1.54.27,2.65-.09,1.12-.25,2.23-.49,3.35-.23,1.12-.46,2.18-.69,3.2-.24,1.03-.35,1.72-.35,2.09l.42,2.23,1.53,2.79c.37,0,1.09-.53,2.17-1.6,1.07-1.07,2.31-2.39,3.75-3.97s2.95-3.28,4.54-5.09c1.58-1.81,3.11-3.51,4.59-5.09,1.49-1.58,2.84-2.9,4.05-3.97,1.2-1.07,2.09-1.6,2.64-1.6.75,0,1.37.46,1.88,1.39.51.93,1,1.91,1.46,2.93.46,1.21.88,2.6,1.26,4.18.09,1.3,0,3.11-.28,5.43-.28,2.32-.73,4.86-1.33,7.6s-1.25,5.53-1.95,8.36c-.69,2.84-1.35,5.44-1.95,7.8-.6,2.37-1.11,4.35-1.53,5.93-.42,1.58-.62,2.42-.62,2.51,0,.37-.05.82-.15,1.33-.09.51-.14.98-.14,1.39s.11.77.35,1.04c.23.28.71.42,1.46.42.56-.37,1.11-.74,1.67-1.12.46-.37.98-.74,1.54-1.12.56-.37,1.16-.79,1.8-1.25,1.59-1.02,3.05-1.97,4.39-2.86,1.35-.88,2.21-1.32,2.59-1.32.56,0,1.16.3,1.8.91.66.6.98,1.19.98,1.74,0,.19-.29.7-.9,1.53-.61.84-1.33,1.72-2.17,2.65-.84.93-1.67,1.77-2.51,2.51s-1.44,1.11-1.81,1.11c0,.74-.25,1.44-.76,2.09s-1.05.98-1.61.98c-1.49,1.58-2.73,3.11-3.75,4.6-1.03,1.49-2.05,2.86-3.07,4.11s-2.13,2.25-3.35,2.99c-1.2.74-2.73,1.12-4.59,1.12-.66,0-1.33-.23-2.02-.7-.7-.46-1.33-1.04-1.88-1.74s-1-1.44-1.33-2.23c-.33-.79-.49-1.46-.49-2.02l-.42-5.02c.56-2.51,1.28-5.2,2.17-8.08.87-2.88,1.69-5.57,2.44-8.08.74-2.14,1.34-4.18,1.8-6.14s.79-3.8.98-5.57v-1.53c-.36-2.6-1.29-3.9-2.78-3.9-2.23,0-4,.49-5.3,1.46-1.3.98-2.37,2.23-3.21,3.76-.84,1.54-1.55,3.19-2.15,4.95-.61,1.76-1.28,3.44-2.03,5.02-.46.56-.76,1.09-.9,1.6-.15.51-.12,1.14.07,1.88-.19,1.12-.4,2.23-.64,3.35-.23,1.11-.53,2.18-.9,3.2-1.03,2.98-2.01,5.92-2.94,8.85-.93,2.93-1.76,5.64-2.51,8.15.46.74.4,1.19-.2,1.33-.61.14-1.19.21-1.75.21s-1.35-.03-2.37-.07-2.02-.21-2.99-.49c-.98-.28-1.86-.7-2.64-1.25-.79-.56-1.24-1.34-1.33-2.37-.19-1.58,0-3.23.56-4.94s1.19-3.32,1.88-4.81,1.37-2.79,2.02-3.9c.65-1.12.98-1.86.98-2.23v-5.02l-.69-2.37c0-.56.18-1.28.56-2.16.37-.88.76-1.76,1.18-2.65.42-.88.82-1.69,1.19-2.44.36-.74.56-1.3.56-1.67v-1.95l-.42-5.43c0-.56-.07-1.14-.2-1.74-.15-.61-.59-.91-1.33-.91-.56,0-1.19.14-1.88.42-.69.28-1.39.58-2.09.9-.7.33-1.35.63-1.95.91-.61.28-1.1.42-1.46.42h-1.12c-.65-.37-.81-1.09-.49-2.16.33-1.07.49-1.88.49-2.44,2.32-3.25,4.58-6.11,6.76-8.57,2.19-2.46,4.81-4.67,7.88-6.62.65-.37,1.53-.84,2.64-1.39s2.18-.83,3.21-.83Z"/><path d="m685.05,364.45c1.21.19,2.53.46,3.97.83,1.44.37,2.72.91,3.83,1.6,1.12.7,2,1.62,2.65,2.78.65,1.16.88,2.67.69,4.53,0,1.02-.2,2-.62,2.93s-.93,1.79-1.53,2.58c-.61.79-1.28,1.42-2.02,1.88-.75.47-1.39.7-1.95.7-.75-.09-1.37-.16-1.88-.21-.51-.05-.91-.07-1.19-.07h-1.95c-1.58,0-3.35.05-5.3.14-1.95.09-3.3.41-4.04.98-.75,0-1.18.23-1.33.7-.14.46-.2,1.02-.2,1.67l-1.95,3.06c-.19,1.12-.37,2.18-.56,3.2-.19.84-.37,1.67-.57,2.51-.18.83-.32,1.39-.41,1.67v2.23l-1.12,3.9c-.18.37-.42.74-.69,1.12-.19.37-.37.72-.56,1.04-.19.33-.33.63-.42.91,0,.83.14,1.97.42,3.41.27,1.44.65,2.84,1.11,4.18.46,1.35,1,2.53,1.6,3.56.61,1.02,1.28,1.58,2.03,1.67,1.38,0,2.82-.56,4.31-1.67,1.49-1.12,2.95-2.35,4.4-3.69,1.43-1.35,2.82-2.56,4.17-3.62,1.35-1.07,2.57-1.56,3.7-1.46,1.39.19,2.18.53,2.37,1.04.18.51.18,1.04,0,1.6-.1,1.3-.64,2.79-1.61,4.46-.98,1.67-2.13,3.32-3.48,4.94-1.35,1.63-2.74,3.11-4.17,4.46-1.45,1.34-2.63,2.3-3.56,2.86-3.06,1.95-5.81,3.57-8.22,4.88-2.42,1.3-5.1,1.85-8.09,1.67-1.29-.1-2.36-.77-3.2-2.02-.84-1.25-1.49-2.69-1.95-4.32-.46-1.62-.82-3.23-1.04-4.8-.24-1.58-.35-2.74-.35-3.49l.42-1.25c0-.37-.05-1-.14-1.88-.1-.88-.17-1.81-.22-2.78s-.09-1.93-.14-2.86-.02-1.63.07-2.09c0-2.87.33-5.13.98-6.76.65-1.62.98-3.36.98-5.22l1.53-3.49v-3.2c.09-.28.33-1,.7-2.16.36-1.16.81-2.46,1.32-3.9s1-2.9,1.46-4.39.84-2.65,1.12-3.49c0-.56.32-1.25.98-2.09.65-.84,1.41-1.65,2.29-2.44.88-.79,1.81-1.46,2.79-2.02.98-.56,1.84-.83,2.59-.83.56-.19.87-.32.98-.42.09-.09.14-.18.14-.28,0-.09.05-.21.14-.35.09-.14.42-.3.98-.49,1.39-.19,2.46-.4,3.21-.63.74-.23,1.44-.46,2.09-.7s1.28-.42,1.88-.56c.6-.14,1.46-.16,2.57-.07Z"/><path d="m726.1,364.17c1.95,0,3.61.35,4.96,1.05,1.34.7,2.44,1.65,3.27,2.86.84,1.21,1.44,2.6,1.81,4.18s.51,3.25.42,5.02c0,2.51-.93,4.52-2.79,6.06-1.86,1.53-3.75,2.85-5.72,3.97-1.76,1.21-3.64,2.28-5.64,3.2-2,.93-3.86,1.95-5.58,3.07-1.71,1.12-3.15,2.42-4.32,3.9-1.16,1.49-1.78,3.39-1.88,5.72v5.85c-.18,1.58.15,3.14.98,4.67.84,1.54,1.91,2.3,3.21,2.3.09.09.46-.05,1.11-.42.66-.37,1.37-.81,2.17-1.33.78-.5,1.58-1.04,2.37-1.6.78-.56,1.37-.98,1.74-1.25,1.39-.65,2.48-1.19,3.28-1.6s1.37-.53,1.75-.35c.65,0,1.2.09,1.67.28s.7.88.7,2.09c-.19,2.05-1.08,4.02-2.65,5.93s-3.3,3.67-5.15,5.3c-1.86,1.63-3.67,3.04-5.44,4.25-1.76,1.21-2.93,2.09-3.48,2.65-1.58,1.39-3.04,2.14-4.39,2.23-1.35.1-2.72.14-4.11.14-.84-.09-1.7-.46-2.59-1.12-.88-.65-1.67-1.41-2.37-2.3-.69-.88-1.22-1.79-1.6-2.72s-.51-1.72-.42-2.37v-2.37c0-.65-.18-1.34-.56-2.09-.19-.37-.37-.69-.56-.98l.42-2.78v-2.23c0-.37.09-1.37.27-3,.19-1.62.42-3.39.7-5.3.27-1.9.53-3.71.76-5.43.24-1.72.4-2.86.49-3.41.37-.28.56-.56.56-.84s-.05-.56-.14-.83-.14-.63-.14-1.04.18-.91.56-1.46c0-1.12.23-2.28.69-3.49.28-.65.57-1.3.84-1.95l1.95-4.6c.19-2.04,1.17-4.16,2.93-6.34,1.77-2.18,3.83-4.16,6.2-5.93,2.37-1.76,4.81-3.18,7.31-4.25,2.51-1.07,4.65-1.51,6.41-1.33Zm-6.27,10.46c-.46,0-.92.35-1.38,1.04s-.93,1.46-1.39,2.3c-.46,1.03-.93,2.09-1.39,3.21-.09.46-.24,1-.42,1.6-.19.61-.33,1.16-.42,1.67s-.05.93.14,1.25c.19.33.57.49,1.12.49.46.1,1.16,0,2.09-.28s1.88-.7,2.86-1.25,1.86-1.23,2.64-2.02c.79-.79,1.24-1.65,1.33-2.58v-2.37c0-.46-.14-.88-.42-1.25-.27-.37-.6-.65-.98-.83-.37-.28-.83-.51-1.39-.7l-2.37-.28Z"/><path d="m771.54,362.91c1.39,0,2.65.65,3.76,1.95,1.12,1.3,1.68,2.6,1.68,3.9,0,1.03-.75,1.88-2.23,2.58s-3.15,1.35-5.01,1.95c-1.86.61-3.7,1.19-5.51,1.74-1.8.56-2.99,1.16-3.55,1.81-.84.83-1.44,1.79-1.81,2.86-.37,1.07-.56,2.16-.56,3.27s.18,2.18.56,3.2c.37,1.03.84,1.95,1.39,2.79.65,1.3,1.42,2.67,2.3,4.11s1.69,3.09,2.44,4.94c.74,1.86,1.37,3.95,1.88,6.27.51,2.32.76,4.93.76,7.81,0,2.51-.83,5.04-2.51,7.59-1.67,2.56-3.81,4.81-6.41,6.76-2.04,1.11-3.63,2.02-4.74,2.72s-2.09,1.25-2.93,1.67-1.64.7-2.44.83c-.79.14-1.79.21-2.99.21h-5.01c-.48,0-1.08.05-1.81.14-.75.09-1.49.23-2.23.42-.93.18-1.91.37-2.93.56h-3.9c-2.6,0-3.9-1.25-3.9-3.76,0-.65.42-1.67,1.26-3.06.83-1.39,1.87-2.74,3.13-4.04,1.26-1.3,2.57-2.46,3.97-3.48s2.61-1.54,3.63-1.54c.27,0,.74.21,1.39.63.65.42,1.41.86,2.29,1.32.88.47,1.88.91,3.01,1.33,1.11.42,2.37.62,3.75.62.93,0,1.79-.28,2.59-.83.78-.56,1.46-1.23,2.02-2.02s.98-1.63,1.25-2.51c.28-.88.42-1.64.42-2.3,0-1.58-.6-3.51-1.8-5.78-1.21-2.27-2.56-4.6-4.05-6.97-1.49-2.37-2.84-4.62-4.04-6.76-1.21-2.14-1.81-3.9-1.81-5.3v-1.53c.37-1.58.93-3.2,1.68-4.88.74-1.67,1.58-3.21,2.51-4.6.93-1.39,1.95-2.63,3.06-3.7,1.11-1.07,2.32-1.74,3.63-2.02.65-.37,1.32-.98,2.02-1.81.69-.84,1.33-1.63,1.88-2.37.74-.74,1.41-1.46,2.02-2.16.6-.7,1.22-1.14,1.88-1.33.74-.65,1.91-1.02,3.48-1.11,1.58-.09,2.73-.14,3.48-.14h3.06Z"/><path d="m780.05,452.89c1.29,0,2.9.05,4.81.14,1.89.09,3.5.42,4.8.98,1.39,0,2.3.56,2.72,1.67s.95,2.37,1.6,3.76c.37.37.82.88,1.33,1.54s.98,1.32,1.39,2.02.77,1.42,1.04,2.16c.28.74.42,1.39.42,1.95l-1.11,12.4c0,2.6-.56,5.48-1.68,8.64-1.11,3.16-2.73,5.99-4.88,8.5-.74.75-1.27,1.56-1.6,2.44-.33.88-.66,1.79-.98,2.72-.33.93-.7,1.88-1.11,2.85-.42.98-1.01,1.93-1.75,2.86-.56.65-1.18,1.44-1.88,2.37-.69.93-1.44,1.88-2.23,2.86-.78.98-1.62,1.86-2.51,2.65s-1.79,1.37-2.71,1.74c-1.39.74-2.56,1.39-3.49,1.95-.93.56-1.76,1.02-2.51,1.39s-1.51.62-2.29.77c-.79.14-1.66.21-2.59.21-1.39,0-2.69-.33-3.9-.98-1.2-.65-2.26-1.51-3.13-2.58-.88-1.07-1.61-2.27-2.17-3.62-.56-1.34-.84-2.72-.84-4.11v-9.33c0-.56-.18-1.07-.56-1.54s-.56-1.76-.56-3.9c-.09-2.69.56-5.94,1.95-9.75,1.39-3.81,3.04-7.55,4.94-11.22,1.91-3.67,3.81-6.92,5.72-9.75s3.37-4.58,4.39-5.23c1.02-.65,1.88-1.37,2.59-2.15.69-.79,1.36-1.51,2.02-2.16.65-.65,1.33-1.19,2.02-1.6s1.6-.63,2.72-.63Zm.69,15.89c-1.49,0-2.99.63-4.52,1.88s-2.95,2.69-4.25,4.32-2.46,3.25-3.48,4.88c-1.03,1.63-1.72,2.81-2.1,3.56l-1.38,5.29c-.37,1.3-.68,2.56-.91,3.76-.24,1.21-.35,1.95-.35,2.23v2.65c.37.28.69.84.98,1.67.28.84.62,1.67,1.04,2.51.42.84.91,1.58,1.46,2.23.56.65,1.35.98,2.37.98,1.86-.84,3.57-1.67,5.16-2.51,1.29-.74,2.57-1.53,3.83-2.36,1.25-.84,2.11-1.67,2.57-2.51.56-1.3,1.18-2.83,1.88-4.6.69-1.76,1.37-3.44,2.02-5.02-.19-.74.02-1.48.62-2.23.6-.74.91-1.44.91-2.09v-3.91c0-.46-.11-1.28-.35-2.44-.23-1.16-.6-2.36-1.11-3.62-.51-1.25-1.13-2.34-1.88-3.27-.74-.93-1.58-1.39-2.51-1.39Z"/><path d="m843.17,395.89c1.39-.37,2.74-.3,4.05.21,1.29.51,2.46,1.25,3.48,2.23s1.83,2.09,2.44,3.35c.6,1.25.91,2.44.91,3.55,0,.56-.17,1.35-.49,2.37-.33,1.03-.75,2.07-1.26,3.14-.51,1.07-1,2.05-1.46,2.93-.46.88-.84,1.42-1.11,1.6-.66.65-1.33,1.09-2.02,1.32-.7.23-1.37.37-2.03.42-.65.05-1.29.12-1.95.21-.65.09-1.25.33-1.8.7-.75.28-1.68.53-2.79.77s-2.23.56-3.35.98-2.21,1-3.28,1.74c-1.07.75-1.93,1.81-2.57,3.2-.28,1.03-.75,2.93-1.39,5.72-.65,2.79-1.3,5.67-1.95,8.64-.75,3.53-1.53,7.38-2.37,11.57,0,1.02.26,1.81.77,2.36.51.56,1.13,1.03,1.88,1.39.74.37,1.53.61,2.36.7.84.1,1.59.14,2.23.14h4.32c.28,0,.62.09,1.04.28s.86.37,1.33.56c.46.28.98.51,1.53.7v2.78c0,.28-.2.77-.62,1.47-.42.69-.93,1.39-1.53,2.09-.61.7-1.21,1.3-1.81,1.81-.61.51-1.1.77-1.46.77h-6.55c-2.69,0-4.48.42-5.36,1.25s-1.33,2.23-1.33,4.18c-.18.56-.36,1.07-.56,1.54-.18.46-.32.9-.42,1.32-.09.42-.14.77-.14,1.04,0,3.25-.18,6.3-.56,9.13-.37,2.84-.56,4.85-.56,6.06,0,.37-.11,1.28-.35,2.72-.23,1.45-.51,3.02-.84,4.74-.32,1.72-.6,3.37-.83,4.94-.24,1.58-.35,2.7-.35,3.35l-.42,6.69c0,.28-.07.79-.2,1.53-.15.75-.28,1.54-.42,2.37-.14.84-.26,1.65-.35,2.44s-.14,1.37-.14,1.74c0,1.58-.07,2.81-.22,3.7-.14.88-.32,1.6-.56,2.16-.23.56-.42,1.04-.56,1.46-.14.41-.2.95-.2,1.6,0,.37-.17,1.19-.49,2.44-.33,1.25-.7,2.63-1.12,4.11s-.88,2.93-1.39,4.32c-.51,1.39-.95,2.42-1.32,3.07-1.12,1.39-2.05,2.63-2.79,3.69-.75,1.07-1.49,2.67-2.23,4.81-.56.28-1.51,1.04-2.86,2.3-1.34,1.26-2.8,2.58-4.39,3.97-1.58,1.39-3.13,2.65-4.66,3.76-1.53,1.12-2.86,1.67-3.97,1.67-1.03,0-1.84.07-2.45.21-.6.14-1.18.32-1.74.56s-1.09.42-1.6.56c-.51.14-1.19.21-2.03.21h-1.11c-.56,0-1.04-.05-1.46-.14s-.71-.05-.91.14c-.36.18-.76.3-1.18.35s-.91.07-1.46.07c-.46,0-1.17-.05-2.1-.14-.92-.1-1.87-.19-2.86-.28-.98-.1-1.87-.19-2.71-.28-.84-.1-1.39-.14-1.68-.14-.36,0-1.11-.12-2.22-.35s-2.26-.6-3.41-1.11c-1.17-.51-2.19-1.12-3.07-1.81-.87-.69-1.32-1.55-1.32-2.57,0-.28.2-.82.62-1.6s.91-1.65,1.46-2.58,1.11-1.81,1.67-2.64c.57-.84.98-1.39,1.26-1.67,0-.37.4-.96,1.19-1.75.78-.79,1.74-1.55,2.85-2.3,1.12-.74,2.28-1.42,3.49-2.02,1.2-.61,2.18-.91,2.93-.91h2.37c.18.18.46.42.83.7.19.18.44.39.77.62s.58.44.76.63l3.49,1.11c.65.19,1.25.33,1.8.42.46.19.98.3,1.54.35.56.05.98.07,1.25.07h3.06c1.96,0,3.65-.44,5.09-1.33,1.44-.88,2.86-2.11,4.25-3.69.46-.09.98-.93,1.53-2.51.56-1.58,1.16-3.49,1.81-5.72.65-2.23,1.27-4.67,1.88-7.31.6-2.65,1.16-5.15,1.67-7.52.51-2.37.91-4.43,1.18-6.2.28-1.76.42-2.87.42-3.35v-2.65c0-.18.09-.98.28-2.36.18-1.39.44-3.09.77-5.09.32-2,.69-4.2,1.11-6.62.42-2.42.81-4.78,1.18-7.1.37-2.32.75-4.46,1.12-6.41.36-1.95.69-3.48.98-4.6,0-.65.05-1.37.14-2.16.09-.79.23-1.51.42-2.15.18-.74.36-1.49.56-2.23,0-1.2-.53-2.09-1.6-2.65-1.08-.56-2.28-.98-3.63-1.25s-2.55-.6-3.62-.98c-1.08-.37-1.61-1.07-1.61-2.09,0-.65.07-1.33.22-2.02.14-.7.58-1.32,1.32-1.88.57-.65,1.35-1.09,2.37-1.32s2.04-.42,3.07-.56c1.02-.14,1.97-.4,2.86-.77.87-.37,1.51-1.02,1.87-1.95.37-.46.75-1.34,1.12-2.65.36-1.3.69-2.83.98-4.6.27-1.76.56-3.67.84-5.71.27-2.04.5-3.97.69-5.78.18-1.81.33-3.44.42-4.88.09-1.44.14-2.48.14-3.14.46-.74.98-1.74,1.53-3,.56-1.25.84-2.44.84-3.55s.28-2.25.84-3.41,1.22-2.3,2.02-3.41c.78-1.12,1.62-2.14,2.51-3.07s1.69-1.67,2.44-2.23c1.3-1.3,2.37-2.51,3.21-3.62.83-1.12,1.95-2.32,3.35-3.62.65-.28,1.25-.67,1.8-1.19.57-.51,1.15-1,1.75-1.46s1.26-.86,1.95-1.19,1.55-.49,2.57-.49h2.37Z"/><path d="m832.31,274.24c.56,0,1.02.07,1.38.21.37.14.93.21,1.68.21.56,0,1.13-.07,1.75-.21.6-.14,1.18-.21,1.74-.21,4.09,0,8.51.91,13.23,2.72,4.74,1.81,9.41,4.13,14.01,6.97,4.6,2.84,8.92,5.95,12.96,9.34,4.05,3.39,7.41,6.62,10.1,9.68.37.56.84,1.3,1.39,2.23.56.93,1.11,1.88,1.67,2.86.57.98,1.08,1.93,1.54,2.85.45.93.74,1.63.83,2.09.56,3.07,1.37,5.67,2.44,7.8,1.07,2.14,2.21,4.02,3.41,5.65,1.21,1.63,2.42,3.11,3.63,4.46,1.2,1.35,2.32,2.86,3.35,4.53,0,.28.35,1.25,1.04,2.93s1.46,3.48,2.3,5.43c.83,1.95,1.62,3.76,2.37,5.44.74,1.67,1.16,2.65,1.25,2.93l1.95,8.92c.19,1.39.58,2.76,1.19,4.11.6,1.35,1.2,2.69,1.8,4.04.61,1.34,1.17,2.69,1.68,4.04.51,1.35.76,2.72.76,4.11v7.25c0,.37.15,1.03.42,1.95.28.93.64,1.95,1.05,3.07.41,1.12.85,2.28,1.32,3.48.46,1.21.84,2.28,1.12,3.21v10.86c0,1.03.32,3.02.98,5.99.65,2.98,1.38,6.2,2.22,9.68.84,3.49,1.62,6.92,2.37,10.31s1.2,6.06,1.39,8.01l.69,7.8c.66,2.05,1.21,3.88,1.68,5.51.46,1.63.84,3.2,1.11,4.74.28,1.53.56,3.11.84,4.73.27,1.63.65,3.46,1.11,5.51.28,1.76.6,3.25.98,4.46.37,1.21.7,2.32.98,3.35.28,1.03.53,2.02.77,3,.23.98.35,2.16.35,3.55,0,.37.05.91.14,1.6s.16,1.39.2,2.09c.05.69.11,1.34.22,1.95.09.6.14,1.04.14,1.32,0,.46.18,1.86.56,4.18.37,2.32.77,4.9,1.19,7.73.41,2.84.81,5.6,1.18,8.3s.56,4.6.56,5.71c0,1.58.07,2.84.22,3.76.14.92.36,1.81.69,2.65.33.83.69,1.74,1.11,2.72s.91,2.21,1.46,3.69c.28,1.02.53,2.16.77,3.41.23,1.25.46,2.58.69,3.97.24,1.39.53,2.74.91,4.04.37,1.3.88,2.42,1.53,3.35,1.12,2.42,1.86,5.09,2.23,8.01.37,2.93.77,5.97,1.18,9.13.42,3.16,1.08,6.29,1.96,9.41.87,3.11,2.34,6.02,4.39,8.71.45.46.83,1.32,1.11,2.58.27,1.25.49,2.6.62,4.04.14,1.44.22,2.81.22,4.11v2.79c0,.65.25,2.04.76,4.18s1.19,4.46,2.02,6.97c.84,2.51,1.79,4.99,2.86,7.46,1.07,2.46,2.17,4.39,3.28,5.78,2.7,4.46,5.23,9.1,7.6,13.93,2.37,4.83,4.97,9.62,7.8,14.36,2.84,4.73,6.03,9.33,9.62,13.8,3.57,4.46,7.87,8.5,12.88,12.12.57.37,1.66,1.13,3.28,2.3s3.35,2.42,5.16,3.76c1.81,1.34,3.48,2.62,5.01,3.83,1.53,1.2,2.48,2.04,2.86,2.51,1.39,1.67,3.14,3.07,5.23,4.18,2.09,1.12,4.37,2.04,6.83,2.79,2.46.74,4.97,1.41,7.53,2.02,2.55.61,5.04,1.23,7.45,1.88,1.11.28,2.32.86,3.62,1.74,1.3.88,2.63,1.81,3.98,2.79,1.34.98,2.66,1.83,3.97,2.57,1.29.74,2.51,1.12,3.62,1.12.28,0,.88.07,1.81.21.93.14,1.95.32,3.06.56,1.12.23,2.17.42,3.14.56.98.14,1.64.21,2.02.21.28,0,.77-.02,1.46-.07.7-.05,1.44-.1,2.23-.14.78-.05,1.53-.09,2.22-.14.7-.05,1.19-.07,1.46-.07.75,0,1.63.18,2.65.56,1.02.37,1.81.56,2.37.56.74,0,1.74-.19,2.99-.56,1.25-.37,2.2-.56,2.86-.56-.09,0,.49-.05,1.74-.14,1.26-.1,2.88-.19,4.88-.28,2.01-.1,4.23-.12,6.69-.07,2.46.05,4.85.21,7.18.49,1.77-.56,3.72-1.35,5.85-2.37,2.14-1.03,4.18-2.42,6.14-4.18.65-.19,1.22-.44,1.75-.77.5-.32.99-.62,1.46-.9.45-.28.99-.54,1.6-.77.6-.23,1.33-.35,2.15-.35.28,0,1.02-.19,2.23-.56,1.2-.37,2.55-.91,4.04-1.6s2.99-1.53,4.54-2.51c1.53-.98,2.86-2.11,3.97-3.41.65-.84,2.09-2.56,4.32-5.16,2.22-2.6,4.52-5.78,6.89-9.54,2.37-3.76,4.5-8.01,6.41-12.75,1.91-4.74,2.86-9.66,2.86-14.77v-10.87c0-2.32-.2-4.09-.62-5.3s-.91-2.3-1.46-3.27-1.04-2-1.46-3.07c-.42-1.07-.62-2.63-.62-4.67,0-.47-.42-1.42-1.26-2.86s-1.79-2.98-2.86-4.6c-1.07-1.63-2.02-3.14-2.86-4.53s-1.25-2.32-1.25-2.78c0-1.03.29-2.16.9-3.42.61-1.25,1.46-2.42,2.59-3.48,1.11-1.07,2.48-1.95,4.11-2.65s3.5-1,5.65-.91c2.04.84,3.64,2.07,4.81,3.7,1.16,1.62,2.39,4.29,3.69,8.01.66.65,1.3,1.53,1.95,2.65.66,1.11,1.24,2.23,1.75,3.35.51,1.11.93,2.13,1.26,3.06.32.93.49,1.54.49,1.81v9.61c0,2.98-.22,5.87-.64,8.71-.41,2.84-.85,5.37-1.32,7.6-.46,2.23-.91,4.06-1.33,5.51-.42,1.43-.62,2.3-.62,2.57,0,.65-.08,1.7-.22,3.14-.14,1.44-.2,2.48-.2,3.14,0,.46-.05.95-.15,1.46-.09.51-.23,1-.41,1.46-.19.56-.37,1.12-.57,1.67-.56,3.25-1.71,6.59-3.48,10.04-1.76,3.44-3.71,6.83-5.85,10.17-2.97,4.55-6.18,8.52-9.62,11.91-3.44,3.39-6.89,6.34-10.38,8.85-3.48,2.51-6.97,4.64-10.46,6.41-3.48,1.76-6.74,3.29-9.75,4.6-3.02,1.3-5.74,2.42-8.15,3.35-2.42.92-4.37,1.85-5.85,2.78-.75,0-1.51-.19-2.3-.56-.78-.37-1.55-.56-2.29-.56-.66,0-1.46.18-2.44.56-.98.37-1.84.56-2.59.56-1.58,0-3.81.05-6.69.14-2.88.09-5.83.19-8.85.28-3.02.09-5.87.11-8.57.07-2.69-.05-4.59-.2-5.7-.49l-13.25-3.06c-.56,0-1.53-.4-2.93-1.19-1.39-.79-2.74-1.19-4.04-1.19-2.61,0-4.74-.28-6.41-.84-1.68-.56-3.19-1.18-4.54-1.88s-2.6-1.33-3.76-1.88c-1.16-.56-2.57-.84-4.24-.84-1.03,0-2.1-.19-3.21-.56-1.11-.37-1.86-.56-2.23-.56-.74,0-1.42-.37-2.02-1.12s-1.27-1.58-2.02-2.51c-.75-.93-1.64-1.84-2.71-2.72-1.08-.88-2.45-1.46-4.12-1.75-3.06-.37-5.69-1.34-7.87-2.93-2.19-1.58-4.16-3.39-5.93-5.43-1.76-2.05-3.46-4.16-5.08-6.34-1.62-2.18-3.46-4.16-5.5-5.93-3.81-4.37-7.6-8.8-11.36-13.31-3.76-4.51-7.22-9.08-10.38-13.73-3.16-4.64-5.85-9.33-8.09-14.07-2.23-4.73-3.67-9.47-4.32-14.21-1.02-.37-1.97-1.12-2.86-2.23-.88-1.11-1.62-2.3-2.22-3.55-.61-1.26-1.08-2.51-1.39-3.76-.33-1.25-.49-2.21-.49-2.86-1.59-3.44-2.93-6.69-4.05-9.75-1.02-2.51-1.95-4.95-2.78-7.31-.84-2.37-1.26-3.93-1.26-4.67,0-.65-.56-2.27-1.68-4.88-1.11-2.6-2.36-5.66-3.75-9.2-1.39-3.53-2.65-7.29-3.76-11.28-1.11-4-1.68-7.67-1.68-11.01,0-1.39-.18-2.6-.56-3.62s-.56-1.91-.56-2.65c0-.56-.33-1.39-.98-2.51-.65-1.12-1.25-2.32-1.81-3.62,0-1.58.12-3.35.35-5.3.23-1.95.11-3.81-.35-5.57,0-.93-.27-2.46-.83-4.6-.56-2.14-1.19-4.37-1.88-6.69-.7-2.32-1.33-4.46-1.88-6.41-.56-1.95-.84-3.3-.84-4.04v-8.08c0-2.42-.37-4.21-1.11-5.37-.75-1.16-1.72-1.95-2.93-2.36-1.21-.42-2.53-.58-3.97-.49-1.44.09-2.91.14-4.39.14h-3.91c-1.29,0-2.6.58-3.9,1.74-1.29,1.16-2.46,2.56-3.48,4.18s-1.84,3.27-2.44,4.94-.91,3.07-.91,4.18v3.91l1.12,1.53,4.32,1.11c3.06,0,5.17.37,6.34,1.12,1.16.74,1.74,2.18,1.74,4.32,0,.74-1.11,1.32-3.35,1.74-2.22.42-4.99.72-8.29.91-3.3.19-6.78.3-10.44.35-3.67.05-6.91.07-9.68.07l-9.34,1.53c-1.3,0-2.53-.42-3.69-1.25-1.17-.84-1.75-1.95-1.75-3.35,0-.65.26-1.33.77-2.02.51-.7,1.11-1.33,1.8-1.88.7-.56,1.39-1.02,2.1-1.39.69-.37,1.22-.56,1.6-.56l5.01-.7c.93-.09,1.84-.49,2.72-1.19s1.67-1.49,2.37-2.37c.69-.88,1.3-1.76,1.81-2.65.51-.88.91-1.55,1.18-2.02.56-1.67,1.26-3.35,2.09-5.02.84-1.67,1.61-3.27,2.3-4.81.7-1.53,1.3-2.9,1.81-4.11.51-1.2.76-2.09.76-2.65,0-.28.15-.81.42-1.6.28-.79.61-1.6.98-2.44.37-.84.75-1.65,1.12-2.44.36-.79.6-1.33.69-1.6.65-2.69,1.39-4.97,2.23-6.83.83-1.86,1.6-3.56,2.29-5.09.7-1.54,1.3-3.04,1.81-4.53.51-1.49.82-3.25.91-5.3.09-2.32.33-4.11.7-5.36.36-1.25.74-2.35,1.11-3.28.36-.92.71-1.9,1.04-2.93.33-1.02.53-2.46.62-4.32,0-.56-.11-1.48-.34-2.78-.24-1.3-.35-2.32-.35-3.07,0-.28.14-1,.42-2.16.27-1.16.58-2.44.91-3.83.32-1.39.62-2.66.9-3.83.28-1.16.42-1.88.42-2.16,0-.37-.05-1.44-.14-3.21-.09-1.76-.24-3.62-.42-5.57-.18-2.32-.37-4.83-.56-7.52-.65-2.69-1.13-4.81-1.46-6.34-.33-1.53-.56-2.86-.69-3.97-.15-1.12-.22-2.21-.22-3.28v-4.25c0-.28-.27-1.3-.84-3.07-.56-1.76-1.18-3.83-1.87-6.2-.7-2.37-1.33-4.81-1.88-7.31-.57-2.51-.84-4.6-.84-6.27,0-.92-.24-2.25-.7-3.97s-1.07-3.7-1.8-5.93c-.75-2.23-1.61-4.58-2.59-7.04-.98-2.46-1.97-4.85-2.99-7.18-1.02-2.32-2-4.48-2.93-6.48-.93-2-1.77-3.65-2.51-4.95-.56-1.11-1.51-2.42-2.86-3.9-1.35-1.49-2.74-3.07-4.18-4.73-1.44-1.67-2.85-3.35-4.24-5.02-1.39-1.67-2.42-3.2-3.07-4.6-1.76-3.71-4.43-7.06-8.01-10.04-3.58-2.97-7.55-5.45-11.92-7.46-4.37-2-8.82-3.53-13.38-4.6-4.55-1.07-8.68-1.6-12.39-1.6h-6.97c-.74,0-1.51.28-2.29.83-.79.56-1.61,1.19-2.44,1.88-.84.7-1.79,1.33-2.86,1.88-1.07.56-2.26.83-3.56.83-1.02,0-2.25.35-3.69,1.05s-2.53,1.28-3.28,1.74c-1.58.74-2.97,1.74-4.18,2.99-1.2,1.25-2.37,2.56-3.48,3.9-1.11,1.35-2.3,2.63-3.55,3.83-1.26,1.21-2.72,2.14-4.39,2.79-.65.65-1.58,2.25-2.79,4.81-1.2,2.55-2.42,5.27-3.63,8.15-1.2,2.88-2.25,5.6-3.13,8.15-.88,2.56-1.33,4.16-1.33,4.81,0,.74.12,1.76.35,3.07.24,1.3.53,2.81.91,4.52.37,1.72.79,3.56,1.25,5.51.48,1.95.98,3.9,1.54,5.85,1.2,4.55,2.6,9.47,4.17,14.77,0,.37-.09,1.09-.27,2.16-.19,1.07-.73,2.16-1.61,3.28-.87,1.11-2.22,2.11-4.04,2.99-1.81.88-4.34,1.33-7.6,1.33-1.11,0-2.15-1.14-3.13-3.42-.98-2.27-1.84-4.83-2.57-7.66-.75-2.84-1.35-5.48-1.81-7.94s-.7-3.88-.7-4.25c0-1.58.06-3.69.15-6.34.09-2.65.46-5.04,1.11-7.18l6.96-27.17c0-1.39.59-2.76,1.75-4.11,1.16-1.34,2.48-2.74,3.97-4.18,1.49-1.44,2.97-2.9,4.46-4.39,1.49-1.49,2.61-3.07,3.35-4.74.28-.65.88-1.51,1.81-2.57.93-1.07,1.91-2.11,2.93-3.14,1.02-1.03,2-1.93,2.93-2.72.93-.79,1.49-1.23,1.68-1.32.65-.46,1.44-1.02,2.36-1.67.93-.65,1.88-1.28,2.86-1.88.98-.6,1.86-1.19,2.65-1.74.79-.56,1.37-.98,1.74-1.25.93-.37,2.21-.67,3.83-.91,1.63-.23,3.32-.53,5.09-.91,1.77-.37,3.53-.81,5.3-1.32s3.35-1.28,4.74-2.3h1.25c.75,0,1.91-.26,3.48-.77,1.59-.51,2.74-.77,3.49-.77Zm86.67,177.81c-.75,2.69-1.42,5.34-2.02,7.94-.61,2.6-1.19,4.97-1.75,7.1-.84,1.39-1.58,2.67-2.23,3.83-.65,1.16-.98,2.11-.98,2.86v6.55h9.75c.57,0,1.19-.19,1.88-.56.7-.37,1.37-.56,2.03-.56v-4.32l-1.68-6.96c-.46-1.76-.84-3.42-1.11-4.95-.28-1.53-.42-2.48-.42-2.86v-4.18c0-.74.02-1.44.07-2.09.05-.65-.2-1.25-.77-1.81h-2.78Z"/><path d="m986.42,452.89c1.95,0,3.59.35,4.94,1.05s2.44,1.65,3.28,2.86c.84,1.21,1.44,2.6,1.81,4.18.36,1.58.51,3.25.42,5.02,0,2.51-.93,4.52-2.79,6.06-1.86,1.53-3.76,2.85-5.72,3.97-1.77,1.21-3.65,2.28-5.65,3.2-2,.93-3.86,1.95-5.57,3.07-1.72,1.12-3.16,2.42-4.32,3.9-1.17,1.49-1.79,3.39-1.88,5.72v5.85c-.19,1.58.14,3.14.98,4.67.84,1.54,1.91,2.3,3.21,2.3.09.09.46-.05,1.11-.42.65-.37,1.37-.81,2.15-1.33.79-.5,1.59-1.04,2.37-1.6.79-.56,1.37-.98,1.75-1.25,1.39-.65,2.48-1.19,3.28-1.6.78-.42,1.36-.53,1.74-.35.65,0,1.21.09,1.68.28s.69.88.69,2.09c-.18,2.05-1.07,4.02-2.64,5.93-1.59,1.91-3.3,3.67-5.16,5.3-1.86,1.63-3.67,3.04-5.43,4.25-1.77,1.21-2.93,2.09-3.48,2.65-1.59,1.39-3.05,2.14-4.39,2.23-1.35.1-2.72.14-4.12.14-.84-.09-1.7-.46-2.57-1.12-.88-.65-1.68-1.41-2.37-2.3-.7-.88-1.24-1.79-1.61-2.72-.36-.93-.51-1.72-.41-2.37v-2.37c0-.65-.19-1.34-.57-2.09-.18-.37-.36-.69-.56-.98l.42-2.78v-2.23c0-.37.09-1.37.28-3,.18-1.62.42-3.39.69-5.3.28-1.9.53-3.71.77-5.43.23-1.72.4-2.86.49-3.41.36-.28.56-.56.56-.84s-.05-.56-.14-.83c-.1-.28-.15-.63-.15-1.04s.19-.91.57-1.46c0-1.12.23-2.28.69-3.49.28-.65.56-1.3.84-1.95l1.95-4.6c.18-2.04,1.16-4.16,2.93-6.34,1.76-2.18,3.83-4.16,6.2-5.93,2.36-1.76,4.81-3.18,7.31-4.25s4.64-1.51,6.41-1.33Zm-6.27,10.46c-.46,0-.93.35-1.39,1.04s-.93,1.46-1.39,2.3c-.46,1.03-.93,2.09-1.39,3.21-.09.46-.23,1-.42,1.6-.18.61-.32,1.16-.41,1.67-.1.51-.06.93.14,1.25.18.33.56.49,1.11.49.46.1,1.17,0,2.1-.28.92-.28,1.87-.7,2.85-1.25s1.86-1.23,2.65-2.02c.78-.79,1.22-1.65,1.33-2.58v-2.37c0-.46-.15-.88-.42-1.25-.28-.37-.61-.65-.98-.83-.37-.28-.84-.51-1.39-.7l-2.37-.28Z"/><path d="m1018.28,454.42c1.02,0,1.81.32,2.37.98s1.07,1.34,1.53,2.09c.28.65.37,1.54.28,2.65-.09,1.12-.26,2.23-.49,3.35-.24,1.12-.46,2.18-.7,3.2-.23,1.03-.34,1.72-.34,2.09l.42,2.23,1.53,2.79c.36,0,1.09-.53,2.15-1.6,1.07-1.07,2.32-2.39,3.76-3.97,1.44-1.58,2.95-3.28,4.52-5.09,1.58-1.81,3.12-3.51,4.6-5.09,1.49-1.58,2.84-2.9,4.04-3.97,1.21-1.07,2.09-1.6,2.65-1.6.74,0,1.36.46,1.88,1.39.5.93.99,1.91,1.46,2.93.45,1.21.87,2.6,1.25,4.18.09,1.3,0,3.11-.27,5.43-.28,2.32-.73,4.86-1.33,7.6-.61,2.74-1.26,5.53-1.95,8.36-.7,2.84-1.35,5.44-1.95,7.8-.61,2.37-1.12,4.35-1.53,5.93-.42,1.58-.64,2.42-.64,2.51,0,.37-.05.82-.14,1.33s-.14.98-.14,1.39.11.77.34,1.04c.24.28.73.42,1.46.42.57-.37,1.12-.74,1.68-1.12.46-.37.98-.74,1.53-1.12.56-.37,1.16-.79,1.81-1.25,1.58-1.02,3.04-1.97,4.39-2.86,1.35-.88,2.2-1.32,2.57-1.32.56,0,1.17.3,1.81.91.65.6.98,1.19.98,1.74,0,.19-.31.7-.91,1.53-.6.84-1.33,1.72-2.15,2.65-.84.93-1.68,1.77-2.52,2.51-.83.74-1.44,1.11-1.8,1.11,0,.74-.26,1.44-.77,2.09s-1.04.98-1.6.98c-1.49,1.58-2.74,3.11-3.76,4.6s-2.04,2.86-3.06,4.11c-1.03,1.25-2.14,2.25-3.35,2.99-1.21.74-2.74,1.12-4.6,1.12-.65,0-1.32-.23-2.02-.7-.69-.46-1.33-1.04-1.88-1.74s-1-1.44-1.33-2.23c-.32-.79-.49-1.46-.49-2.02l-.41-5.02c.56-2.51,1.27-5.2,2.15-8.08.88-2.88,1.69-5.57,2.44-8.08.75-2.14,1.35-4.18,1.81-6.14.46-1.95.78-3.8.98-5.57v-1.53c-.37-2.6-1.3-3.9-2.79-3.9-2.22,0-3.99.49-5.3,1.46s-2.37,2.23-3.2,3.76c-.84,1.54-1.56,3.19-2.17,4.95-.6,1.76-1.28,3.44-2.02,5.02-.46.56-.77,1.09-.91,1.6s-.11,1.14.07,1.88c-.18,1.12-.4,2.23-.62,3.35-.24,1.11-.53,2.18-.91,3.2-1.02,2.98-2,5.92-2.93,8.85-.93,2.93-1.77,5.64-2.51,8.15.46.74.4,1.19-.22,1.33-.6.14-1.18.21-1.74.21s-1.35-.03-2.37-.07c-1.02-.05-2.02-.21-2.99-.49s-1.86-.7-2.65-1.25-1.22-1.34-1.33-2.37c-.18-1.58,0-3.23.57-4.94.56-1.72,1.18-3.32,1.87-4.81.7-1.49,1.37-2.79,2.03-3.9.65-1.12.98-1.86.98-2.23v-5.02l-.7-2.37c0-.56.19-1.28.56-2.16.37-.88.77-1.76,1.19-2.65.42-.88.81-1.69,1.18-2.44.37-.74.56-1.3.56-1.67v-1.95l-.41-5.43c0-.56-.08-1.14-.22-1.74-.14-.61-.58-.91-1.33-.91-.56,0-1.18.14-1.87.42-.7.28-1.39.58-2.1.9-.69.33-1.35.63-1.95.91s-1.09.42-1.46.42h-1.11c-.66-.37-.82-1.09-.49-2.16.32-1.07.49-1.88.49-2.44,2.32-3.25,4.57-6.11,6.76-8.57,2.18-2.46,4.81-4.67,7.87-6.62.65-.37,1.53-.84,2.65-1.39,1.11-.56,2.18-.83,3.2-.83Z"/><path d="m1083.49,454c1.67,0,3.08.42,4.25,1.25,1.16.84,2.13,1.86,2.93,3.07.78,1.21,1.35,2.48,1.67,3.83.33,1.34.49,2.48.49,3.41v5.15c0,1.03-.27,2.86-.83,5.51-.57,2.65-1.19,5.39-1.88,8.22-.7,2.84-1.33,5.48-1.88,7.94-.56,2.46-.84,4.02-.84,4.67v2.65c0,.56-.35,1.42-1.04,2.58-.7,1.16-1.44,2.6-2.23,4.31-.78,1.72-1.53,3.74-2.22,6.07-.7,2.32-1.04,4.97-1.04,7.94v7.81c.74,1.3,1.22,2.69,1.46,4.18.23,1.49,1.04,3.16,2.44,5.02.74,1.39,1.22,2.97,1.46,4.73.23,1.76.62,3.3,1.18,4.6.28,1.67.49,2.97.62,3.9.15.93.26,1.76.35,2.51.09.74.14,1.49.14,2.23v8.36c-.27,1.39-.78,2.58-1.53,3.56-.74.98-1.55,1.88-2.44,2.72-.88.84-1.79,1.6-2.71,2.3-.93.7-1.68,1.37-2.23,2.02-1.3,1.3-2.77,2.51-4.39,3.62-1.63,1.12-2.72,1.67-3.28,1.67l-3.9,1.25h-2.64c-.84,0-2.01.19-3.49.56-1.49.37-2.55.56-3.2.56h-8.09c-1.3,0-2.46-.28-3.48-.84-1.02-.56-1.95-1.23-2.79-2.02-.84-.79-1.6-1.63-2.3-2.51-.69-.88-1.32-1.65-1.88-2.3-.56-.28-1.16-.77-1.8-1.46-.66-.7-1.26-1.44-1.81-2.23-.56-.79-1-1.6-1.33-2.44-.32-.84-.49-1.53-.49-2.09v-3.9c0-1.58.22-2.93.64-4.04.41-1.11,1-2.46,1.74-4.04.37-1.21,1.21-2.67,2.51-4.39,1.3-1.72,2.28-3.23,2.93-4.53.37-.46.88-.86,1.54-1.19.65-.33,1.29-.67,1.95-1.04.65-.37,1.29-.77,1.95-1.19.65-.42,1.16-.95,1.53-1.6,1.3-.74,2.37-1.44,3.2-2.09.84-.65,1.95-1.25,3.35-1.81.65,0,1.33-.21,2.02-.63.7-.41,1.37-.93,2.03-1.53.65-.61,1.27-1.21,1.88-1.81.6-.61,1.18-1.09,1.74-1.46.84-.56,1.51-.96,2.02-1.19.51-.23.77-.72.77-1.46.74-.65,1.64-1.28,2.71-1.88,1.08-.61,1.97-1.28,2.72-2.02.46-1.67.88-3.29,1.26-4.88.36-1.3.69-2.62.98-3.97.27-1.34.42-2.39.42-3.14,0-1.21-.57-1.91-1.68-2.09-1.11-.18-2.37-.28-3.76-.28h-1.11c-.37,0-1-.28-1.88-.83-.88-.56-1.79-1.23-2.71-2.02-.93-.79-1.75-1.53-2.44-2.23-.7-.7-1.05-1.19-1.05-1.46v-2.78c0-1.86-.2-3.28-.62-4.25s-.62-2.11-.62-3.41c0-1.95.49-4.39,1.46-7.31.98-2.93,2.09-5.83,3.35-8.71,1.25-2.88,2.44-5.53,3.55-7.94s1.81-4.13,2.09-5.16c.66-.56,1.46-.99,2.44-1.32.98-.32,1.46-1.19,1.46-2.58,1.39-1.11,3.01-2.42,4.81-3.9,1.81-1.49,3.7-2.23,5.65-2.23Zm-14.36,83.61c-1.29,0-2.51.39-3.62,1.19-1.11.79-2.32,1.83-3.63,3.13,0,.37-.53,1.05-1.6,2.02-1.07.98-2.23,2.23-3.48,3.76-1.26,1.54-2.42,3.37-3.48,5.51-1.07,2.14-1.61,4.55-1.61,7.25,0,1.02.64,1.95,1.88,2.79,1.26.83,2.68,1.58,4.25,2.23,1.58.65,3.14,1.16,4.67,1.53,1.53.37,2.57.56,3.13.56.93,0,1.97-.35,3.14-1.04,1.16-.7,2.22-1.6,3.2-2.72.98-1.12,1.79-2.32,2.44-3.62.66-1.3.98-2.6.98-3.9v-5.44c0-.37-.07-1.28-.2-2.72-.14-1.44-.44-2.93-.91-4.46-.46-1.54-1.09-2.93-1.88-4.18-.79-1.25-1.88-1.88-3.28-1.88Zm8.64-64.66c-1.02,0-1.88.54-2.57,1.6-.7,1.07-1.3,2.3-1.81,3.69s-.88,2.74-1.11,4.04c-.24,1.3-.35,2.18-.35,2.65v6.27c.46,1.49.88,2.78,1.26,3.9.36,1.02.78,1.91,1.25,2.65s.93,1.11,1.39,1.11l1.95-1.81c.75-2.6,1.44-5.02,2.1-7.25.45-1.86.92-3.69,1.38-5.51.46-1.81.7-2.99.7-3.55,0-.46-.02-1.14-.07-2.02-.06-.88-.22-1.74-.49-2.57-.28-.84-.7-1.58-1.26-2.23-.56-.65-1.35-.98-2.37-.98Z"/><path d="m1123.76,453.58c.84,0,1.44.46,1.81,1.39s.56,1.76.56,2.51c-1.67,5.86-3.16,11.2-4.46,16.03-.56,2.04-1.11,4.07-1.68,6.06-.56,2-1.04,3.83-1.46,5.5-.41,1.67-.74,3.09-.98,4.25-.23,1.16-.34,1.93-.34,2.3,0,.65-.12,1.72-.35,3.2-.24,1.49-.24,2.86,0,4.11.23,1.25.84,2.09,1.81,2.51s2.66-.16,5.08-1.74c.19-.46.79-1.07,1.81-1.81,1.02-.74,2.13-1.67,3.35-2.78.74-.74,1.2-1.51,1.39-2.3.18-.79.46-1.18.83-1.18,0-.74.33-1.44.98-2.09.66-.65.98-1.25.98-1.81.19-.65.7-1.85,1.54-3.62.83-1.76,1.76-3.9,2.78-6.41.84-1.76,1.63-3.67,2.37-5.72.75-2.04,1.39-4.04,1.95-5.99.56-1.96,1-3.74,1.33-5.37.33-1.62.49-2.95.49-3.97s.23-1.81.7-2.37c.45-.56,1.04-.98,1.74-1.25.7-.28,1.42-.44,2.17-.49.74-.05,1.38-.07,1.95-.07h3.2c1.12,0,2.02.56,2.72,1.67.69,1.11,1.04,2.36,1.04,3.76,0,.28-.11,1.14-.35,2.58-.23,1.44-.51,3.09-.83,4.94-.33,1.86-.73,3.76-1.19,5.72s-.93,3.58-1.39,4.88c-1.95,4.18-3.86,8.34-5.72,12.47-1.86,4.13-2.78,8.15-2.78,12.05,0,.47.18.98.56,1.54.18.28.36.51.56.7,1.2,0,2.44-.37,3.7-1.12,1.25-.74,2.37-1.53,3.35-2.37.98-.83,1.83-1.62,2.57-2.37.74-.74,1.25-1.11,1.53-1.11s.58.14.91.42c.32.28.62.56.91.83.36.37.69.74.98,1.12,0,.37-.44,1.28-1.33,2.72s-1.91,2.97-3.06,4.6c-1.17,1.63-2.28,3.14-3.35,4.53-1.07,1.39-1.75,2.23-2.02,2.51-.93.65-1.75,1.23-2.44,1.74-.7.51-1.33,1.03-1.88,1.53-.56.52-1.15,1.12-1.75,1.81s-1.28,1.55-2.02,2.58c-1.21,1.2-2.46,2.04-3.76,2.51s-2.64.7-4.04.7c-.66,0-1.28-.21-1.88-.63-.6-.41-1.15-.93-1.6-1.53-.48-.61-.84-1.25-1.12-1.95-.27-.7-.42-1.28-.42-1.74v-3.9c.37-1.12.75-2.23,1.12-3.35.27-.93.56-1.91.83-2.93.28-1.02.42-1.91.42-2.65,0-.56-.07-1.14-.2-1.75-.14-.6-.58-.9-1.33-.9-.56,0-1.2.35-1.95,1.04s-1.49,1.49-2.22,2.37c-.75.88-1.45,1.74-2.1,2.57-.65.84-1.16,1.39-1.53,1.67-.56.75-1.58,1.88-3.06,3.42-1.49,1.53-3.07,3.06-4.74,4.6-1.68,1.53-3.28,2.9-4.81,4.11-1.53,1.2-2.63,1.81-3.28,1.81-.56,0-1.11-.26-1.67-.77s-1.04-1.12-1.46-1.81-.77-1.39-1.04-2.09c-.28-.7-.42-1.19-.42-1.46v-3.9c0-.74.05-1.49.14-2.23.09-.65.16-1.3.2-1.95.05-.65.08-1.2.08-1.67,0-.56.11-1.32.34-2.3.24-.98.35-2.11.35-3.41,0-1.21.16-2.46.49-3.76.33-1.3.58-2.27.77-2.93l1.11-5.3c.18-.65.67-1.76,1.46-3.35.78-1.58,1.18-3.71,1.18-6.41,0-1.3.05-2.21.15-2.72.09-.51-.46-.77-1.68-.77-.56,0-1.13.1-1.74.28-.61.19-1.42.46-2.44.83-.75.46-1.5.84-2.23,1.12-.75.28-1.3.41-1.68.41-.56,0-1.16-.35-1.8-1.04-.66-.7-.98-1.6-.98-2.72s.27-1.97.83-2.58c.57-.6,1.24-1.11,2.03-1.53.78-.42,1.55-.84,2.29-1.25.75-.42,1.26-.95,1.54-1.6,1.2-.93,2.64-2.25,4.31-3.97,1.68-1.72,3.39-3.41,5.16-5.09,1.77-1.67,3.46-3.11,5.09-4.32,1.62-1.21,3.08-1.81,4.39-1.81h2.64Z"/><path d="m1196.51,451.63c1.39,0,2.65.65,3.76,1.95,1.12,1.3,1.68,2.6,1.68,3.9,0,1.03-.75,1.88-2.23,2.58s-3.15,1.35-5.01,1.95c-1.86.61-3.7,1.19-5.51,1.74-1.8.56-2.99,1.16-3.55,1.81-.84.83-1.44,1.79-1.81,2.86-.37,1.07-.56,2.16-.56,3.27s.18,2.18.56,3.2c.37,1.03.84,1.95,1.39,2.79.65,1.3,1.42,2.67,2.3,4.11.88,1.44,1.69,3.09,2.44,4.94.74,1.86,1.37,3.95,1.88,6.27.51,2.32.76,4.93.76,7.81,0,2.51-.83,5.04-2.51,7.59-1.67,2.56-3.81,4.81-6.41,6.76-2.04,1.11-3.63,2.02-4.74,2.72-1.11.7-2.09,1.25-2.93,1.67s-1.64.7-2.44.83c-.79.14-1.79.21-2.99.21h-5.01c-.48,0-1.08.05-1.81.14-.75.09-1.49.23-2.23.42-.93.18-1.91.37-2.93.56h-3.9c-2.6,0-3.9-1.25-3.9-3.76,0-.65.42-1.67,1.26-3.06.83-1.39,1.87-2.74,3.13-4.04,1.26-1.3,2.57-2.46,3.97-3.48,1.39-1.02,2.61-1.54,3.63-1.54.27,0,.74.21,1.39.63.65.42,1.41.86,2.29,1.32.88.47,1.88.91,3.01,1.33,1.11.42,2.37.62,3.75.62.93,0,1.79-.28,2.59-.83.78-.56,1.46-1.23,2.02-2.02.56-.79.98-1.63,1.25-2.51.28-.88.42-1.64.42-2.3,0-1.58-.6-3.51-1.8-5.78-1.21-2.27-2.56-4.6-4.05-6.97s-2.84-4.62-4.04-6.76c-1.21-2.14-1.81-3.9-1.81-5.3v-1.53c.37-1.58.93-3.2,1.68-4.88.74-1.67,1.58-3.21,2.51-4.6.93-1.39,1.95-2.63,3.06-3.7,1.11-1.07,2.32-1.74,3.63-2.02.65-.37,1.32-.98,2.02-1.81.69-.84,1.33-1.63,1.88-2.37.74-.74,1.41-1.46,2.02-2.16.6-.7,1.22-1.14,1.88-1.33.74-.65,1.91-1.02,3.48-1.11,1.58-.09,2.73-.14,3.48-.14h3.06Z"/><path d="m1256.77,430.03c-2.14,0-3.98.42-5.51,1.25-1.53.84-2.86,1.97-3.97,3.41-1.11,1.44-2.06,3.14-2.86,5.09s-1.46,4-2.02,6.14c-.56,1.76-1.21,3.32-1.95,4.67-.75,1.35-1.46,2.67-2.17,3.97-.69,1.3-1.32,2.6-1.87,3.9-.57,1.3-.88,2.79-.98,4.46v3.9c0,1.3-.12,2.42-.35,3.35-.24.93-.49,1.86-.77,2.78-.27.93-.53,1.86-.76,2.79-.24.93-.35,1.95-.35,3.07,0,3.53.16,7.17.49,10.94.33,3.76,1.04,7.22,2.15,10.38,1.12,3.16,2.72,5.76,4.81,7.8,2.1,2.04,4.9,3.07,8.44,3.07,3.06,0,5.72-.79,7.94-2.37,2.23-1.58,4.05-3.65,5.43-6.2,1.39-2.55,2.42-5.41,3.07-8.57.65-3.16.98-6.36.98-9.62,0-.83-.24-1.49-.7-1.95s-1.04-.77-1.74-.91c-.7-.14-1.49-.21-2.37-.21h-2.57c-1.5,0-2.65.14-3.49.42-.83.28-1.62.58-2.37.91-.74.32-1.58.62-2.51.91-.93.28-2.13.41-3.62.41-.75,0-1.59-.21-2.51-.62-.93-.42-1.39-1-1.39-1.75,0-2.69.76-4.64,2.29-5.85,1.54-1.2,3.47-2.46,5.78-3.76,1.49-.84,2.81-1.42,3.98-1.74,1.16-.33,2.34-.56,3.55-.7,1.2-.14,2.46-.26,3.76-.35,1.29-.09,2.84-.32,4.59-.7,1.21-.18,2.26-.7,3.14-1.53.87-.83,1.93-1.25,3.13-1.25,2.32,0,4.41.37,6.27,1.11,1.86.75,3.39,2.19,4.6,4.32l-5.02,12.41c.37,1.02.65,1.88.84,2.57.18.7.28,1.65.28,2.86,0,1.39-.19,2.49-.57,3.28-.36.79-.56,1.79-.56,2.99v6.13c0,2.14-.33,4.04-.98,5.72-.65,1.67-.98,3.67-.98,5.99v6.55c0,2.69-.05,5.15-.14,7.38-.09,2.23-.26,4.39-.49,6.48-.24,2.09-.49,4.18-.77,6.27-.27,2.09-.6,4.39-.98,6.89-.46,1.96-.91,3.46-1.32,4.53-.42,1.07-.64,2.53-.64,4.39,0,1.58-.25,3.02-.76,4.32s-.77,2.84-.77,4.6c0,1.67-.18,3.11-.56,4.32s-.84,2.32-1.39,3.35c-.56,1.02-1.2,2.04-1.95,3.07-.75,1.02-1.53,2.23-2.37,3.62-1.58,2.69-3.02,5.31-4.32,7.87s-2.93,5.09-4.88,7.59c-2.04,2.32-3.86,4.39-5.43,6.2-1.58,1.81-3.21,3.48-4.88,5.02-1.68,1.53-3.48,3.02-5.43,4.46-1.95,1.44-4.32,2.95-7.11,4.53-2.6,1.58-5.07,3.04-7.38,4.39-2.32,1.34-4.65,2.53-6.97,3.56-2.31,1.02-4.74,1.83-7.25,2.44-2.51.6-5.24.91-8.22.91-1.76,0-3.24-.21-4.46-.63-1.2-.42-2.69-.63-4.46-.63-1.02,0-1.81.07-2.37.21-.56.14-1.35.21-2.37.21-2.51,0-5.04-.4-7.6-1.19-2.55-.79-4.82-1.93-6.83-3.41-2-1.49-3.64-3.32-4.94-5.51-1.3-2.18-1.95-4.62-1.95-7.31,0-2.51,1.07-4.55,3.21-6.13,2.13-1.58,4.46-2.37,6.96-2.37,1.86,0,3.46.32,4.81.98s2.63,1.44,3.83,2.37c1.2.92,2.42,1.93,3.62,2.99,1.21,1.07,2.65,2.02,4.32,2.86,1.59.84,3.1,1.44,4.54,1.81,1.44.37,2.88.62,4.32.77,1.44.14,2.93.21,4.46.21h4.94c2.88,0,5.21-.7,6.96-2.09,1.77-1.39,3.72-2.88,5.86-4.46,1.47-.93,2.97-1.49,4.46-1.67,1.49-.19,2.84-.93,4.04-2.23,1.58-1.76,3.25-3.67,5.01-5.71,1.77-2.05,3.3-4.13,4.6-6.27,2.69-5.02,5.04-9.55,7.04-13.59,2-4.04,3.66-8.01,5.01-11.92,1.35-3.9,2.44-7.97,3.28-12.19.83-4.23,1.44-8.99,1.8-14.28.19-2.14.24-4.02.15-5.64-.1-1.63-.15-3.6-.15-5.93,0-1.21.26-2.25.77-3.14s.77-1.93.77-3.14v-2.09c0-.37-.42-.56-1.26-.56-1.11,0-2.04.26-2.79.77-.74.52-1.44,1.12-2.09,1.81-.66.7-1.33,1.42-2.02,2.16-.7.74-1.61,1.34-2.72,1.81-2.13,1.58-4.46,2.42-6.96,2.51-2.51.09-5.11.05-7.8-.14-1.03-.09-2.32-.61-3.9-1.53-1.59-.93-3.14-2.09-4.67-3.49-1.53-1.39-2.9-2.97-4.12-4.73-1.2-1.76-2-3.58-2.37-5.44-.46-1.95-1-3.69-1.6-5.22-.6-1.54-1.16-3.07-1.67-4.6-.51-1.54-.93-3.07-1.26-4.6-.33-1.54-.49-3.28-.49-5.23,0-2.6-.02-5.11-.07-7.52s-.02-4.76.07-7.04c.09-2.27.31-4.58.62-6.9.33-2.32.86-4.73,1.61-7.24,1.85-6.14,4.11-11.89,6.76-17.28,2.64-5.39,5.78-10.1,9.4-14.14,3.63-4.04,7.8-7.25,12.54-9.62,4.74-2.37,10.17-3.56,16.31-3.56,2.22,0,4.55.63,6.96,1.88,2.42,1.25,4.67,2.67,6.76,4.25,2.09,1.58,3.9,3.18,5.43,4.8,1.54,1.63,2.48,2.77,2.86,3.42-1.58,2.97-3.83,5.2-6.76,6.69s-5.96,2.23-9.13,2.23c-.74,0-1.34-.2-1.8-.62s-.88-.95-1.26-1.6c-.37-.65-.69-1.37-.98-2.16-.28-.79-.6-1.51-.98-2.16-.75-1.58-1.97-2.55-3.7-2.93-1.71-.37-3.46-.56-5.22-.56Z"/><path d="m1298.65,495.11c.37,0,1.37.44,2.99,1.32,1.62.88,3.32,1.98,5.09,3.28,1.76,1.3,3.36,2.65,4.81,4.04,1.43,1.39,2.15,2.65,2.15,3.76,0,.65-.75,1.81-2.23,3.49-1.49,1.67-3.18,3.37-5.08,5.09-1.91,1.72-3.76,3.23-5.58,4.52-1.8,1.3-3.04,1.95-3.69,1.95-1.02,0-2.02-.53-2.99-1.6-.98-1.07-1.84-2.25-2.59-3.56-.74-1.3-1.37-2.58-1.88-3.83-.51-1.25-.76-2.02-.76-2.3,0-.37.36-1.3,1.11-2.79s1.64-3.11,2.72-4.88c1.07-1.76,2.13-3.46,3.2-5.09,1.07-1.62,1.97-2.76,2.72-3.41Z"/></svg>