<?xml version="1.0" encoding="UTF-8"?><svg id="Réteg_1" xmlns="http://www.w3.org/2000/svg" viewBox="0 0 105.06 126.46"><path d="m6.47,34.69c0-2.27-.8-4.82-2.41-7.65s-1.23-5.95,1.09-9.35c-1.75-2.49-3.13-4.98-4.17-7.47C-.04,7.71-.27,4.32.32,0h2.2c1.18,0,3.22.24,6.15.68.88,0,2.58.24,5.06.69,2.49.46,5.13,1.13,7.91,2.03,2.79.91,5.49,2.16,8.14,3.74,2.63,1.59,4.69,3.53,6.15,5.78-.59,2.05-.8,5-.66,8.84.14,3.86-.07,7.94-.66,12.25-.29,1.13-.45,2.78-.45,4.93s.16,4.37.45,6.63c.3,2.27.73,4.43,1.32,6.46.59,2.05,1.32,3.53,2.2,4.43,1.47,2.49,1.9,5.9,1.31,10.2-.57,4.32-.57,8.84,0,13.6,0,.68.23,1.83.66,3.4.45,1.59.88,3.35,1.32,5.27.45,1.92.73,3.79.88,5.6.16,1.83-.07,3.29-.66,4.43,2.06,2.49,2.93,5.6,2.65,9.35-.29,3.74-1.18,8.22-2.65,13.42l-.88,3.75c-.59-.22-1.75-.46-3.51-.68-1.77-.22-3.67-.57-5.72-1.02-2.04-.46-4.1-1.08-6.15-1.87-2.04-.79-3.52-1.76-4.4-2.89-2.34-7.25-4.76-14.68-7.24-22.28-2.49-7.6-3.74-14.67-3.74-21.26-1.75-2.49-2.27-5.66-1.54-9.52.73-3.85.52-7.93-.66-12.25l-1.32-19.04Z"/><path d="m67.19,35.66c0-2.27-.8-4.82-2.41-7.65s-1.23-5.95,1.09-9.35c-1.75-2.49-3.13-4.98-4.17-7.47-1.02-2.5-1.25-5.9-.66-10.21h2.2c1.18,0,3.22.24,6.15.68.88,0,2.58.24,5.06.69,2.49.46,5.13,1.13,7.91,2.03,2.79.91,5.49,2.16,8.14,3.74,2.63,1.59,4.69,3.53,6.15,5.78-.59,2.05-.8,5-.66,8.84.14,3.86-.07,7.94-.66,12.25-.29,1.13-.45,2.78-.45,4.93s.16,4.37.45,6.63c.3,2.27.73,4.43,1.32,6.46.59,2.05,1.32,3.53,2.2,4.43,1.47,2.49,1.9,5.9,1.31,10.2-.57,4.32-.57,8.84,0,13.6,0,.68.23,1.83.66,3.4.45,1.59.88,3.35,1.32,5.27.45,1.92.73,3.79.88,5.6.16,1.83-.07,3.29-.66,4.43,2.06,2.49,2.93,5.6,2.65,9.35-.29,3.74-1.18,8.22-2.65,13.42l-.88,3.75c-.59-.22-1.75-.46-3.51-.68-1.77-.22-3.67-.57-5.72-1.02-2.04-.46-4.1-1.08-6.15-1.87-2.04-.79-3.52-1.76-4.4-2.89-2.34-7.25-4.76-14.68-7.24-22.28-2.49-7.6-3.74-14.67-3.74-21.26-1.75-2.49-2.27-5.66-1.54-9.52.73-3.85.52-7.93-.66-12.25l-1.32-19.04Z"/></svg>